<mxfile host="app.diagrams.net" modified="2024-01-06T03:03:37.142Z" agent="Mozilla/5.0 (Macintosh; Intel Mac OS X 10.15; rv:121.0) Gecko/20100101 Firefox/121.0" etag="Zq9YOcxGRHfxpICQvnzm" version="22.1.16" type="device">
  <diagram name="Page-1" id="dn0jmmBz7pEjj_xFjjGb">
    <mxGraphModel dx="1129" dy="688" grid="1" gridSize="10" guides="1" tooltips="1" connect="1" arrows="1" fold="1" page="1" pageScale="1" pageWidth="850" pageHeight="1100" background="#FFFFFF" math="0" shadow="0">
      <root>
        <mxCell id="0" />
        <mxCell id="1" parent="0" />
        <mxCell id="FG_MApjRu5s-pOYkRa3S-1" value="&lt;font style=&quot;font-size: 14px;&quot; face=&quot;Courier New&quot;&gt;dyff-operator&lt;/font&gt;" style="rounded=0;whiteSpace=wrap;html=1;fillColor=#A9C4EB;verticalAlign=bottom;align=right;" parent="1" vertex="1">
          <mxGeometry x="70" y="830" width="730" height="230" as="geometry" />
        </mxCell>
        <mxCell id="A-6-zeI3Z-jVhBnKLyq9-8" value="" style="group" parent="1" vertex="1" connectable="0">
          <mxGeometry x="300" y="540" width="200" height="30" as="geometry" />
        </mxCell>
        <mxCell id="A-6-zeI3Z-jVhBnKLyq9-2" value="&lt;font face=&quot;Courier New&quot;&gt;workflows.state&lt;/font&gt;" style="shape=parallelogram;perimeter=parallelogramPerimeter;whiteSpace=wrap;html=1;fixedSize=1;" parent="A-6-zeI3Z-jVhBnKLyq9-8" vertex="1">
          <mxGeometry width="200" height="30" as="geometry" />
        </mxCell>
        <mxCell id="A-6-zeI3Z-jVhBnKLyq9-5" value="" style="shape=image;verticalLabelPosition=bottom;labelBackgroundColor=default;verticalAlign=top;aspect=fixed;imageAspect=0;image=data:image/png,iVBORw0KGgoAAAANSUhEUgAAAa0AAAGtCAYAAAClVis3AAAAAXNSR0IArs4c6QAAAGhlWElmTU0AKgAAAAgABAEGAAMAAAABAAIAAAESAAMAAAABAAEAAAEoAAMAAAABAAIAAIdpAAQAAAABAAAAPgAAAAAAA6ABAAMAAAABAAEAAKACAAQAAAABAAABraADAAQAAAABAAABrQAAAADrM55VAAAC5GlUWHRYTUw6Y29tLmFkb2JlLnhtcAAAAAAAPHg6eG1wbWV0YSB4bWxuczp4PSJhZG9iZTpuczptZXRhLyIgeDp4bXB0az0iWE1QIENvcmUgNi4wLjAiPgogICA8cmRmOlJERiB4bWxuczpyZGY9Imh0dHA6Ly93d3cudzMub3JnLzE5OTkvMDIvMjItcmRmLXN5bnRheC1ucyMiPgogICAgICA8cmRmOkRlc2NyaXB0aW9uIHJkZjphYm91dD0iIgogICAgICAgICAgICB4bWxuczp0aWZmPSJodHRwOi8vbnMuYWRvYmUuY29tL3RpZmYvMS4wLyIKICAgICAgICAgICAgeG1sbnM6ZXhpZj0iaHR0cDovL25zLmFkb2JlLmNvbS9leGlmLzEuMC8iPgogICAgICAgICA8dGlmZjpDb21wcmVzc2lvbj4xPC90aWZmOkNvbXByZXNzaW9uPgogICAgICAgICA8dGlmZjpSZXNvbHV0aW9uVW5pdD4yPC90aWZmOlJlc29sdXRpb25Vbml0PgogICAgICAgICA8dGlmZjpPcmllbnRhdGlvbj4xPC90aWZmOk9yaWVudGF0aW9uPgogICAgICAgICA8dGlmZjpQaG90b21ldHJpY0ludGVycHJldGF0aW9uPjI8L3RpZmY6UGhvdG9tZXRyaWNJbnRlcnByZXRhdGlvbj4KICAgICAgICAgPGV4aWY6UGl4ZWxYRGltZW5zaW9uPjQyOTwvZXhpZjpQaXhlbFhEaW1lbnNpb24+CiAgICAgICAgIDxleGlmOkNvbG9yU3BhY2U+MTwvZXhpZjpDb2xvclNwYWNlPgogICAgICAgICA8ZXhpZjpQaXhlbFlEaW1lbnNpb24+NDI5PC9leGlmOlBpeGVsWURpbWVuc2lvbj4KICAgICAgPC9yZGY6RGVzY3JpcHRpb24+CiAgIDwvcmRmOlJERj4KPC94OnhtcG1ldGE+CncA/6UAADKkSURBVHgB7Z1BeuNGsq1dvnd+eVdg9ArMnr1ZwbM3a/UKGl6B1SswewVyD9+I1aM3VPXwjSivQPIKSM/uTOoV+J3jEtssWpRIIIGMTPzxfWGSIDLixJ9ABgCp5C++wCAAAQhAAAIQgAAEIAABCEAAAhCAAAQgAAEIQAACEIAABCAAAQhAAAIQgAAEIAABCEAAAhCAAAQgAAEIQAACIQm8C6kKURD4jcBCb5fPHw/f/7bHp3cPenl63nj4/ng/PkMAAgUToGkVPHmVSd83pFZ1fS1v5Ev5EHPz2sl/kt/JaWaCgEEAAhCAQD8CrYbdyO/lv0zkzuWcrRyDAAQgAAEIvErgSt+u5Y/yqRrVqTzWYC3WhEEAAhCAAAR+JdDovyv5Vn6qgeTebm3W2MgxCEAAAhCYIYFGNa/luRvSpfmtuZVjEIAABCAwAwKNatzIL20W0fZ3Da0cgwAEIACBCgk0qmktj9Z8hupxTa4NgwAEIACBSgisVEeEX64Y2qBOjXdtrhGDAAQgAIGCCSyl/V5+arGvbftWtbZyDAIQgAAECiOwkt7amtK59bh2DAIQgAAECiCwkMaN/NwFvtb9fIfZyDEIQAACEAhKwI8Da/7Z1aUN1izaoHOFLAhAAAKzJtCp+ksX9bnsbzYYBCAAAQgEIXAjHXNpQH3rXAeZK2RAAAIQmDUBL8Z9F/K5jaNxzfpUoXgIQCA3ARrW5Q2bxpX7qCU/BCAwSwI0rMsb1i86Uuw0rlmeMhQNAQjkIkDD6t+waFy5jlryQgACsyTQqer9wsvrMBbXszyCKBoCEIDARASulIdGlZZBN9HckQYCEIDArAg0qpZ/OJy2YfkCwEz9j7IxCEAAAhBISOBesbjLGoeB2S4SzhWhIAABCMyawI2qp2GNy2A96yOM4iEAAQgkItAqDg1rGgb+mSEGAQj0JPCu5ziG1UPAj6z86Kqpp6TQlTxJ3R/kfsUgAIELCXx54f7sXh+B71VSU19ZYSvyRYIfxWIQgAAEIHAhgaX257FgHgbthXPF7hCAAARmT2AjAjStPAzMHoMABCAAgTMJXGk/GlZeBt2Zc8VuEIDAMwF+EWO+h8JWpTcFlO9fWHiQ/yjfPbtevrjzf2Ttr//9VEuj9+/lfuy5kEe3nQT+IbpI9EEAAhDITaCTgMh3WY/St5ZfyfuaxzqGY0WutZM+DAIQgAAEXiGw0XcRF/KtdHXylHdJjuWYjh21ZknDIAABCEDgJQKtNkZbvH03tJKPbddKEPHOqx27cOJDAAIQKJXAWsIjNa2N9DQTwvSd1608EgPrwSAAAQhA4IiAF+xIi/XqSN+UH33XFYlFM2Xx5IIABCBQAoFIC3UXANiVNER5XOi5wSAAAQhA4IDAvd7nvrtwk3CziGJLCYnQuLZRgKADAhCAQAQCjUTkbljO7yYRzaI0rohsos0VemZOgD+YO58D4CpAqd9Kw0MAHccSrOmvxxszfG4z5CQlBCAAgZAENlKV805rHZLK56JuMjPy41sMAhCAAAREIGfD2ir/opBZsNacrErhVMh0IhMCECiRQCvRORdi5y/FWgnNyeqqFFDohEAOAvxMKwf16XO206f8d8Y7vbOXYncSas9ly1yJyQsBCEAgCoFbCcl199BGgXCBDjeOXLw2F+hkVwhAAAJVEtiqqhyLcMm/WODmkYPZY5VHIEVBAAIQuIBAjsXXObsLNEbb1dpzceOXMaIdDeiBAAQmI9AqE4vv5bjdOHJx85xhEIDACwT4RYwXoFS2KddV+504PhXM0to/ZtLfZMpLWgiEJ0DTCj9FgwUuB0foF+DHfsNCjcpVQxOKAmIgEIgATSvQZFQm5a6Ceh4qqIESIFAVAZpWVdP5YjFfvbh1/I01LPi5ang//vSQAQJlEqBplTlvl6huLtk54b5PCWPlClVDDbnYkRcCoxCgaY2CdfZBdxURuKuoFkqBQPEEaFrFT2HIAnYhVSEKAhAongBNq/gppAAIQAAC8yFA05rPXFMpBCAAgeIJ0LSKn8KQBSxDquonquk3jFEQgMAYBGhaY1Al5qIiBE1FtVAKBIonQNMqfgrfLODhzT3G2aGGu61mHDRvRn16cw92gMBMCdC06p/4f2UqsYamlauGnzLNGWkhEJ4ATSv8FBUr8Otilf8mnL9M8RsL3kEgBAGaVohpGFXE3ajRTwe/Ov1VMd+0mZQ+ZMpLWgiEJ0DTCj9FgwU+DY7QL0CjYbker/VT/PmonPpzzdnnBPgEAQhAIBOBXP8zw5tM9aZIu1KQXNxS6CcGBCAAgWIJ3Et5jgX4UXkXhVLbZmLmvBgEIHCCAI8HT4CpbPNDpnrcsLpMuYekteZmSIABY3PN1QDJDIUABCCQlsC1wuW403LOEu+2ct1lmZfnCoMABCAwawJLVZ+raTlvST/bWmVm5bnCIAABCMyegO94cjauEhbj3M3dc4RBAAIQgIAIrOU5m9ZW+ReBZ8La7jMzug3MB2kQgAAEJiVwpWw5m5ZzR16U1wH4dNKAQQACEICACPhOInfTcn43h2gWoWGZTeQ70Whzhh4IQGAGBHyn48Uxt7tJRDFryc3D+SPfhUaZK3RAAAIzIxDhEeG+QbhZ5L6zsIa9ntyv3cyORcqFAAQgcBaBrfbKvUDv899Ly/Is1Wl3ahTOufc6cr8+pi2PaBCol8B/1lsalZ0g8A9t//7Ed1NvdsPayP8m/2Gi5NfK4/oXE+U7J82Hc3aa+T6er6V8/7rH8ZXeNPsPev3x4L3f3j1/3r8+f+QFAhAohUAjob8EdN/5tPKxrFVgN8iItTfShf1GoNHbTn4j95z5TjTFvDmO463kV3I3QAwCECiAwFoaUywCY8Rw8+oSMnQsL1RjaE0Rc52w1pJDuYmYxVaeguu5MXy83ciXcgwCEAhKoJGuc0/qXPv5qngt7+SN/FxrtGMn91jHyKX/3LyNNM7V9o0qyjxZx42cBhb4iHwXWBvSxiWwbwjjZkkX/UmhHuQ7+c/yQ/tKHxq5F5uFvBT7IKHfliI2kc5GcTr5X+SNPKrtJOzv8g9yH3sYBCCQmUCj/OfeDbDfOKw8B3OxRoWu5aUdS/u7L+vHIACBzARWyl/aIlKLXj+GmoM1KrLEZvXSceY6SrqTn8PxRY0zI+ATcCt/6QRl23hcfPVe++Ln+tyYazuOPHcree3zpxIxCMQkcCVZtS0s0evpYh4KyVRdK5IX9+jzMETfVvX53MEgAIEMBG6Vc8gJzNjz+W0yzO9UKRslcn1zOh587nDXJQgYBKYk4JOu9ivjCAupGTdTTuyEueZwd3XqGPK8thOyJhUEICACftRx6qRkexo2Zlyb+YLHdxscI59+hlfb/FIPBEITuJE6Fp9xGJhtbbZUQfdyjpnfGGzEw40cgwAEJiLgk45FKC0DL+y1WauCHuUcK79nsBUXN3QMAhCYgICvErl6/v1C1Hdx9sJe25V3p5r68pjLOM87jUsQMAhMQcAnG1fRwxfmGheuTsfGXBrP0Do9/60cgwAEJiBA4xq+ONd2pd3puBu6kM9x/NUE5yspIAABEaBx9V+ku8qOINczx4aTouYa77grO7wppyYCnYpJceLOKYaZ1WSdipnT/I1RK42rpjOCWsIT4I7rvEXbC1MXfjYvE9hq9zEW8TnG9PGxuAw/e0MAAn0J0LheX7xrvJJmzl+f8z6N914nII2r7yrEOAhcSKDR/j7p+pysNY8xEy/wNZkXVuZ6nGN9XdOBQi0QiE7Ai5lPupqb0CW13YpFjVfOzPG4x3in4waDAAQmJNAp16P8kgW+tn2vJ+Q9Zapu5vM6xXHqc2c55aSSCwIQ+HTSzfERkmuudcFpVNvcL0amaFrO4eMIgwAEMhBYKedcFjrXWrNtVNxUizZ5Pv1fkGs+nqgNAmEJNFJ2K691IfJi7hprtisVV+v8Ra3LF3tNzQcVtUEgOoFWAr3AR10kLtXlRziuqXZbqMCt/FI+7D+cmS/2MAhAIDOBVvk38lIXta20d/K52EqFljpXNehu53KgUScEohNoJbCkx4Yb6bXmOZnvsvyYqobFv9QafNxhEIBAIAKNtKzkW3m0hcWabuSNfI62VtHR5uQlPZ4na72Wt3I325dsqY2tfCXfyF+KFXFbK60YBCAQkIAXFTeJrTzX4uHc1nAln7N54c81B+fk9R2g58nHzBDzPN/Kz8mZa5/NkAIZCwEITEPAi9G13AuKF6ixFgzHdg7nck7sE4GVXsZiPiTuVro6+UKe0hoFW8uHaBtzbCttGAQgUAiBlXSOtSA4NvZ7AmNeKPSdy5Vkpm5Wx5U32uCLmL4axxpnTRgEIFAIgZV0jrUYODb2OYFOH8fi3SfuvfRMfRd8pZzRGncjTdgJAl+e2M5mCECgfgLfBSrxg7T8Uf4wsaaPmfK+VmakeXlNZ5bvaFpZsJMUAtkJNFIw9V3NqaK/1Rf2XLZT4m/kH+QRzHd/2AkCNK0TYNgMgcoJRFkY3aw+BGD9JA1RtDTSEuWCIsDUfC6BpvU5Dz5BYC4E/hKg0L9Kw4cAOg4luHF9PNyQ6X2E+clU+utpaVqv8+FbCNRIoFFRua/kP0jDD/KI5sb1kFnYVeb8YdPTtMJODcIgMBqB3AuiG4LvsqLak4S5cfk1lzVKvMyVPHJemlbk2UEbBMYh8H6csGdHzd0QzhHqxvq3c3YccZ92xNjFhqZpFTt1CIdAbwJt75HDB/6gEG4IJVhurbkvLkLOEU0r5LQgCgKjEVgq8mK06K8HftLXue9eXlf4+29zPsb0XGFHBGhaR0D4CIHKCeRcCP8utm5cJdmdxNpzWKOkduyAAE3rAAZvITADAk3GGj9kzD0k9T+GDB44thk4vrrhNK3qppSCIPAqgVw/J/koVbtXlcX98oOk5bpDbONiyaOMppWHO1khkItAkynxPzPlTZXWTTeHfZUjaeScNK3Is4M2CKQn0KQPeVbEXIv+WeLO2ClX023O0DarXWhas5puip05gSZT/Q/Km+vxWqqS71IFujDO4sL9q9+dplX9FFMgBP5NoPn3u2nf3E2bbpRsbrpuvlPbcuqE0fPRtKLPEPogUD6Bn8sv4dcKdpXUUXQZNK2ipw/xECiCQI47lDHA/DRGUGJeRoCmdRkv9oZAyQTaksWjHQImQNPiOIAABCAQm8Aitrxp1dG0puVNNghAAAKXEqBpHRCjaR3A4C0EIACBgAR2ATVlk0TTyoaexBCYnMBu8owkhEBiAjStxEAJB4HABHaZtDWZ8qZO+3XqgMS7nABN63JmjIAABC4j0Fy2e9i9a6kjLOBzhNG0zqHEPhCAwBACuf6y/BDNL43N8dcpdi8JmfM2mtacZz9W7f4NqTH/orVjz/23sO4yTXmbKW/KtLlq2KUsglgQgEB/Aq2GXstv5Vv5LxO5cznnSt7K52ZTcT7Oc1U46BvpP65pis8+VjEIQCADgUY5903qUe+nOOHPzeGFwdoaee22UYHnckm537pwsNtM3FaFc0M+BIoi0Eitm8G9POUCOGYsa625gbl5jMnvVGxfqCzkJVor0afqGnv7VYnA0AyBkgh4YerkG/nYJ/TY8d3AXEupi62k/86utWVsbqfid79TU8aGdUZmyzIQoRIC5RFoJPlG7ivqU4tWqdtdkxeuRl66tSog1zxsC4TXZOTlecIgAIHEBBrF84KeayGcOq9rbeUl29TMDvP5Tq8ku5XYQ/1Tvt+UBAqtEIhOoJHAnCf0lIvHS7m8oLTyEs3aX6ppim2+a20KgdZK5xRMTuVYFcIJmRAITaCRurX81Ik2t+1mYSYl2Upic86TL3aim3+OuZXn5NRGh4Q+CEQnsJJAXynnPJGj5jYbL3QlmH+4n5tj9MeEuZ8i+DzDIACBngRajdvKcy900fObkVmVYBHmsw0KaiVduY+1dVA2yIJAaAK+c7iR5z6BS8vvq/Sod12R5tR3E0t5JOskJsLxZh0YBCBwAYFW+27lEU7gEjV4QTbDSHYtMdYViWekxtUFYWMmUS96JA2DQDwCK0mKtLCVrOUmwPS20rANPKdepDt5TlspeZTjbJ0TBLkhUBIBX91t5FFO3lp03ItpjivnRnlvC5rPHA3e8xKNUStNGAQg8AaBpb7fymtpFNHqeBRbM57CvBCv5NEYnKPnXrpb+RTWKYnn5RxdU+2znaJwckCgdAKdCoh28k61SEydx6zHtE7Ba5jLW9XRyMewVkHv5VPP/Tn5OunCIACBVwh0+u6ck4l90nG6fmU++n7VauBGXts8uaYr+VDz3Wcnj9qsPG++2MAgAIFXCNzou9oWuVLqWb8yL5d81Whnxyql7r46vaDfyjv5Un6Oeb9rucf1zTvluJV0Ym8QePfG93xdL4G1SuvqLa+Iyj5I5bcDlK409ju57yLmaA8q+umFws1j+cL2yJtcxx/kL9UTWTfaIDAJATesKa8gyXWat+fiUrvSgK0crvUwuL70IGB/CMyFgBdJFrtYDDwn59hSO23kzF9dDLbnTD77QGCOBLw4suDFZOC5OWULfXEjZ+7qZNCemni2Q2DOBFYqnkUvNgM3pmPzY6NHOXNXJ4Pb4wnnMwQg8OkXLlj0ylj0uucDttXrVs681cvAFyO+i8YuIMBvD14Aq9Bd/XOQ+0K1z1X2RxV+NdfiZ1T3n1Wr5xq7gABN6wJYBe66kGZfrfsVgwAE4hD4IClD/rlDnEomVkLTmhj4xOk2ytdOnJN0EIDA6wQe9PU38qfXd+Pblwh8+dJGtlVBYKUq2ioqoQgI1EPAjcp3WDSsnnPKnVZPcMGHtdLnuywMAhCIRcB3WHexJJWlhjutsubrHLUL7bQ+Z0f2gQAEJiXgO6y7STNWmIymVd+kfq+SmvrKoqJMBD4o73/L/Yr1J/BXDf3QfzgjIVAngVZl/YLDIMEx4MfLS/mh+Z9OcHxdzmB9CJH3wwjwM61h/KKN3kpQE01UAj13zzF+fCPW++fv2zf24+vTBHb6yncFH1/YxY+eb+TdC9+x6WUCP2izeWIQgMARgZU+13AV7L8ScCu/li/lfc1jHcOxHLMGNmPWYEYr+UL+lq21w5haaondvQWS7yEwVwKNCi95YbZ2L4RX8rHMsZ2jZE5jLebm0sgvsRvtPJaeGuJ2l8BkXwjMjYAXnRJP9K10+27onKv7VHPqXM7p3CUyS6l5IwatvK91GphSTw2xfFG07AuUcRCYA4FGRZZ2sm+luZPntk4CrKU0fkP1emF17SnMCzR3r5+OoY1Y+KIIgwAEXiGw1ndDF7GpxntxW8mjndjWNJeFdwz+ns9b+VTHUcQ85opBAAJvEGj0fcQT+CVNG2m13qjWSJg1vqS9hm1uKq5xTLtW8Lk0//0xsVXN7ZhQiQ2BmgisVcz+5In8uioIuhfeyCwv1bZVPe2E/Bvl2sgv1Vni/ivVGe2pgSRhEIhJoJGs6Ce6r7pbeWm2lODS7xis3w04l10p8VYe/Rjto2+juho5BgEIXEBgpX37nHBTjbmXPi/+pVoj4a5hKl4p89xI90Iewdw43UBT1pcr1lZ1uBljEIBADwKRFwIv9lEWzR5o/z3ENbiWXIvkpXk30trIo5k5ruRe9C+tKcL+1n0tr+GYVhkYBKYn0CllhJP5JQ21NKz9rJbQuLyoXu0FB3/tpK+UC4FbaW3lGAQgMJCAT6aXGkbubbU1rP00RW5cblgl2lKib+SP8tzH7WF+87yWN3IMAhBIQKBRjMOTLMp7Lz5eiGo1N65oC+x+7pvCoV9JvxuYG8a+pilf75V3Ja/5+FV5GATyELhW2ilP6HNztXlwTJrVi9q5PKbcz8dELdaokE6+lruZjMFxo7huklfyhRwriMC7grQi9RMBn8hePCPZ3yRmFUnQiFrcILzgRbIHifljJEGJtfh4X8jb57hfP39+/njy5Unf/PT87Z1ed8+uFwwCEJiCQKMkY1x5DonpJjo385X6EGZjjG3mNgnUO08CX86z7GKrbgMq/zagprEluWZfxUeyq0hi0AKBsQjQtMYiO07cP40TtndUPxZ86D263IE7Sf97MPnvg+lBDgQgAIFQv732qPlYzHxOtqp/jEd9fWPOfDoofw4EuNMqZ5aXkhqpSfhO46kcfKMo9Z1mJGsjiUELBCAwbwLXKr/vFXjqcdxl/XYsbgPNi48RDAJVE+BOq5zp/TqQVO6yfpuMSD/bev+bLN5BAAIQyEvgXulT3zH1jdfkRREqux/Z9uWYetw2FBnEQAACsyaQeoHrG+921rPwcvFrbe7LM/U4N1EMAtUS4PFgGVPbBpL5z0BaokiJxGQZBQo6IDAGAZrWGFTTx2zSh+wd8WPvkfUOjMSkqRczlUHgiy9oWmUcBU0QmXfS8RRESzQZURpXEw0MeiCQkgBNKyXN8WJ9NV7oiyL/eNHe89o5CptIv2U6ryOAaichQNOaBPPgJM3gCGkC3KUJU2WUhyBVLYLoQAYERiFA0xoFa7VBoyzMEQHfBRHVBNGBDAiMQuDdKFEJmpqAfy06tz1JwH/nFhE8/1b6mgAaOa8DTAISxiHAndY4XGuMyl3W27O6e3sX9oAABIYQoGkNocdYCHxOYPf5Rz5BAAKpCdC0UhOtNx53Wm/P7c9v7zLJHotJspAEAhkI0LQyQC805b8K1T1H2cs5Fk3N8yBA04o/z018iSiEAAQgMA0BmtY0nMkCAQhAAAIJCNC0EkAcOcRu5PiEhwAEIFAMAZpWMVOVXeh/ZVeAgHMJ3J27I/tBoDQCNK3SZiyfXn64/zb7KH8j8m2l7AGBQgnQtAqdOGSHJNCEVIUoCFREgD/3UsZkRvgzTibF8fL68cKfcXqdD99CYDAB7rQGI5wkwN0kWd5O0ry9y6z3iMCHfwQ+60Ow/uJpWvXPccoK+bnWaZrt6a8m/eZp0mwkg8DEBGhaEwPvmW7Xc1zqYTSt00Tb019N+g1Na1LcJJuaAE1rauL98kX5m3Z/6id/FqPeB6nypyA6kAGBUQjQtEbBmjzoQ/KI/QL6TmvRb2jVo8ykDVLhLogOZEBgFAI0rVGwJg/6lDxi/4BX/YdWO7INVNkukBakQAACMybgX3uP4LcznoNTpZtJhLmxBgwCEIBACAL3UhFlYWxCEIkhwo8Go8zLNgYSVEBgPAI8HhyPberID6kDDojXDRhb29DrQAVFOkYCYUFKTQRoWuXMZqTfCvtO2HyHgX3xxV8CQfgxkBakQGAUAjStUbCOEvRulKj9grphRbrD6FfF8FGdQjTDwySLcJcsEoEgAAEIJCDwqBhRfn5iLXO+23Lt/hlSpPmQHAwCdRPgTqus+f0YSK4X7e8D6ZlayrUSNlMnfSXf3Svf8RUEIACBLAQ6ZY1yZb/XscxCIm/SJuA8uIliEIAABEIR8N3NvllEefWv4s/NNio4Cv+9jmZuk0C98yTwn/Msu9iqn6T8Qb4MVIG1rJ49kKzRpLjWdrTo/QL7mNj1Gxp+1EIKfYw1z/61Xr3N5u37979ueP7PTq92207+8/Or39/JMQhAYEIC18q1v7qO9NpOyCBXKi+SkZjvtfiYqMUaFeJ61vKtfF9jylc/HXD8Tt7IMQhAYEQCC8VOeQKniuXfJvSiXqs1Ksw1puKVMo61lWxXEr+Wb+UpuZwby3lv5DUfvyoPg0A+ArdKfe4JOeV+99LlplqbuSbXNiXLc3NtC4XtBrGWPwbjap438kaOQQACiQh0inPuojb1frU1rsgNaz+3XmhbeXQzy05uvXvtkV830tnKMQhAIAGByCd+LY2rhIZ1uOh7kW0SHFupQ5jjSh7truqQ3Wvvt9LeyTEIQGAAgZXGvnai5f7OjauRl2qlNazD+b4RdOvPbaU3q0Omfr+Vt7mhkh8CpRLwgnB8UkX77CvrtkDAS2ku9a5gfwxYf5eRvXOXznDP8vh1o9paOQYBCFxIYK39j0+oiJ9XF9aVc/frQpieO8/3qqedEKgb/kZ+rr6S97tRnb54xCAAgTMJNNqvlJPeC5n1RrVGwqyxFJ6X6rxVba5xTFsp+KW6St9/q5pbOQYBCJxJYK39SjrxV9Ib6erUWqyp1kdZx8eGa03Nv1HMjfw415w++64LgwAEziDQaJ/SFoetNHfy3NZJgLWUxm+oXjdo157CrhRkLg3/Le73YtGkgEoMCNROYK0C3zqhIn6/le6VPPWVv0KetP2dlXNHZDKlJi+y7UlSb39xrV2m1FtCLjfw9m107AGBeRPwQlz61e5aNVyNOI2O7RwlLHxTazSXRn6JwfL1Y6m7BCb7QmCOBFYqeurFbqx8t6rFV/GtvK+1GugYjjWWzpri+qJnJV/IXzN/D9Pzjikff1hiAu8SxyNcXgL3Sr/MK2GU7DtFtT/I/yV/yb7SxubAX9qHbW8T2GmXv8k/yI/NDWsjr/EYO6411ecPCvRtqmDEgUBtBFoVVNPVP7Xkm083Jx9Pe3PD8kURc3I5g/UeIq/DCfzH8BBECERgJy1eXP5XIE1IKZNAI9md3K8/yf+vnONKEHqY70x9Xv6/HmMZckTg3dFnPpZPYH9F3JRfChVAoCoCfkz4oaqKMhRD08oAfYKUvrLzoxwMAhCIReDPkvMxlqSy1PB4sKz5Olft/2hHX5C05w5gPwhAYBIC/1tZ/JjQ5yjWgwB3Wj2gFTTk+IfpBUlHKgSqJfCgyr6RP1Vb4YiFfTlibELnJ+BHEbv8MlAAAQgcEPDj+5uDz7y9gABN6wJYBe7qKzk3Lq7oypq8h7LkorYHgU5jrnqMm/0Qmlb9h4AXwL/WX2Y1FX6rSv4o9+OjnRyrl4D//dai3vKoDALDCHQazj8Mjc1g9cIUX2vbI3NX7bF7+8KcswkCEHgm4Cs7GldMBp6bU+arceYu5rylOJ/aUxPPdghAgMUvxSKTOoYb0jm21E4beer8xMvLdHvO5LMPBOZMYK3iWahiMPBcXGpXGuCFjjmsh4EfA2NnEODfaZ0BqdJdvFh2ldZWSlkfJNS/eNHXVhr4ndyPD+dodwdFP+n9noNflwfflfDW+v8g9ysGAQicIOB/K8LVeh4GvmhIYY2COFbt87h9rrPTayM/x9y4Orl/2eFRHp3RShoxCEDgDQKdvo9+Mtemb/XGnPT5utWgjbw2VmvV5NpSWKcgkRm5sWIQgMAZBDrtU8KVaA0LslmPaZ2Cb+Wls1qrhkY+hrUKupFHZNRJFwYBCJxBwI9StvKIJ3INmnxRYMZT2EJJVvISud1L91ScOuWKdrHmcxCDAATOJODFbiMvcbGLrNkLsdlObY0S3sojsznUtpLWqS3iMd9ODYF8ECidwEoFHC4mvO/P4ybAwdBKgxtn1Hl8lDZrzGkrJY/CZ50TBLkhUCqBVsK38igncmk6IizEx8depw3WFYml9Uz1OFCpXrVO30ZgYyYYBCDQg4AfndzII5zIJWm4FbMcjwPPmeJIcxqpYe3ZdXoT4Vi72gviFQIQuJxAqyFbeYSTObIGMzKrEswNIzfLZVBQ1wHYrIOyQRYEiiKwktoIi13uxfY4v5mYje9iSjA3i+Mapv7sxhDZ1hI3NZPDfD6mMAhAIAEBL8y5T+jDkzv3e7NoEnCdMsRKyXJyu52y2J65fJxvM3Nqe2pnGAQg8AKBRtu8YOdc/HLmdu1mUKJtJDoXO99BuCGUYK1E5uLkvCs5BgEIJCbQKN5anvPknjK3a3XNJduUvI5zRX8seDyvvis8rmGqz5tjMXyGAATSEWgUaiX3lfRUJ/VUeVyTa2vkpVurAqbidpxnWyC8JiMvH3cYBCAwAYFOOXJeoR4vln0/uwbXUpP5Tqcvj6HjukJBrjMyWxbKDNkQKJKAf3bhRbKkBrZ51tzotUbLtQD7rsHHQ4nWSvTQht13/FWJwNAMgRoIeMHq5F40t/K+J3HqcdaylnfyUhdVST/bNtozNcNz4plxybaV+HPqTL3PqmRoaIdATQQaFdPJb+QbeeqT/VQ853LOTt7I52anuIy9vfQ7Bh8zYzN6Kf7t3A5Q6oVASQRWEvvSiZtim2Nj4/F9a45KZ9+qgLdqHOP7TengUuv/MnVA4kEAAmEJtJmU3WXKmzJtrhqalEXUEIumVcMsUgMEYhP4Mba8s9Xdnb1nuh2bdKHqiETTqmMeqQICkQnsIou7QFstdVxQcrxdaVrx5gRFEBiLQDNW4Dfi7t74vpSvfy5FaM06aVo1zy61QeBzAs3nH/kEgfII0LTKmzMUQwACEJgtAZrWbKeewiEAAQiUR4CmVd6coRgCEIDAbAnQtGY79RQ+QwJ3M6yZkisjQNOqbEIpBwIBCSwDauoj6es+gxiTlgBNKy1PokEAAr8n8NXvNxW5pSlSdWWiaVqVTSjlQOAVArtXvhvzq3bM4BPGznHH+DBhfUWkomkVMU2IhEASArskUS4P4sV+cfmwUCOuMql5ypQ3bFqaVtipQRgERiGwGyXq20FzLfpvKztvj/fn7ZZ8r4fkEQsPSNMqfAKRD4ELCewu3D/V7n9KFShTnC5T3n9lyhs2LU0r7NQgDAKjEMj1F9d9p9WMUtH4Qa19MX6aFzPcvbh1xhtpWjOefEqfJYFdxqq/y5h7SOqcunk8eDRzNK0jIHyEQOUE7jLW1yl3rjuWvmW3GmjPYTslfcqROHJOmlbk2UEbBNIT2ClkroXQDesmfUmjRvx+1OivB394/et5fkvTmue8U/W8CdxlLL9T7jZj/ktSX2fWmuvnj5cwmnxfmtbkyEkIgewE/plZwVr5fdcV2RqJy3mXZTYf/R/scwI0rc958AkCcyBwl7nIRvkjPyZ0Q72V52ysO+W3Y0cEaFpHQPgIgRkQ2KnGh8x1dsq/yqzhVHo31OWpLyfa/nGiPMWloWkVN2UIhkASAv9IEmVYED9+64aFSD7ajy4jaIowP8nhpghI00pBkRgQKI9AlCv5KE3CMxhFy05act8Jm0dIo2mFnBZEQWB0AjtluBs9y3kJ3CzsuWyhxBt5l0vAUV7uso6AHH6kaR3S4D0E5kUg0uLYCf29vJFPaa2SbeV+jWIfogiJqIOmFXFW0ASBaQh8UJqnaVKdlWWpvdy4VnLf/YxpjYL77s53WGPnUoqz7aP23J29NztCAAKTE/BCdS33rxj7iveXkdyxncO5nBP7RGCll7GYD4nr+erkC3lKaxTsRv4oH6JvrLGtdGEQgEAwAlfS44XDC9NYJ/9bcZ17LbeWOZubQtQF3HNobT5WlvK+5ho9z7fyt46LnN9v+hbIOAhAID2BRiG9+GzlOReGl3LvF0ZrnKOtVPRLXKJt20rnWn4tb+WN/CVrtdFNaiXfyKPVcUpPK60YBCCQmUCr/CUtHNbqBW9OtlCxbtynFlO2j8/Gxx0GAQhkJNAp91Ze6oJn7a5hLrZSoaXOVQ2627kcaNQJgWgEWgnygl/DQuIaXMsc7rx8t1XTvJV0/PlnbRgEIDAxgUb5NvKSFotLtLq2pbxmc3O+hAn7Duflx7K+YMAgAIEJCayUay4LmGut2XzVP5e5jFDndc0HE7VBIBoB33ncyyOc/FNqcM2uvUbzVb+v/qfkOddcmxoPIGqCQFQCvkKc62Kzr9sMarQrFbWvkddxWPjCoKnx4KEmCEQj4CvxWzmL2ScGZmEmtdlaBTHH4zHwhQEGAQiMTKBR/Hs5i9nnDMxkKa/J3IiZ68/nOdVxf1PTgUItEIhKwIvyozzViVtbHLOprXE1zHny490XAhgEIDAygVbxaVhvN2wz6uQ1mRtxbRcYuepxw/IdLAYBCIxIoFPsXCd5qXnNrCbrVEypcxFFty9oarsTr+kYp5ZKCPgk4w6r34LdVXIM7MtwPVEaQGk6aFj7o4hXCIxIgIY1fJFuR5yfHKE7JS2tYeTWS8PKcaSSc3YEaFhpFucaF6xOZ0PuRlBK/hrnf3aLIQXHJ7CQxK28lIUhuk4vXGZak3UqJjr33PpoWDUd8dQSmsA9C1LyBdlMa2tc3I2fbtw1znfoRQtx8yVwo9JzX6HWmn9d4WHVqCYucj4/Z27FpLYLlAoPXUqqgcCViqi1YUSpq6vhQDmqwQu0G3IUxjl1XB+x4SMEIDASAS88j/KcJ/wccptxI6/RfNEz12Noq9qXNU4qNUEgKoGNhM2haUSo0axrtUaFze1YulHNvujDIACBiQj4CjnCYj4nDdcTzW2uND6mar/r2qrGNhdg8kJgrgR8hVj74hKxGZq52ddsrm8tj8h/iCbP3XXNE0dtEIhM4EbihpzAjO3Pbx35wEiobalYmwqOMzerlbz2iw2ViEEgJoFGsmg6eRl4DuZibl5u1KUdczSrYEfou2B6kDMdAS8g3XTpBmd6UIQn+Y8nIr3X9ubZT+wSbvOdFH0TTtW4ghqF7+TfySPftfh4+7v8o9zHHQYBCGQk0Ch39CteX+G6sV7JF/Jzzft6jMc6RvQ6W2mcq0Wbp60m4ka+nOuEUDcEohLwgh51Md9ImxezVOZYjhm13ttUhRYex/PkhrGVTzlX9895aVQCgUEgIoFGoqZcFM7NtZGuVj6WtQrsHOfqmXK/Rrqw3wg0eusmtpJ7zh7lKeZj+xxvpVfHX8ixwgjwM63CJiyB3JVifJ8gTqoQTwr0N/kPqQK+EafT976ij7Rgufa/yrHXCbTPXy/1es787bSf/Un+IMcgAIECCaS6ak1x5etHM16AprZGCZ07RQ0pYnhOMAhAAAIQOCJwpc8pFtkUMW6lZXGkb+qP60A8uqmLJx8EIACB6ATcKFI0nKEx3CyiWJTG5bnBIAABCEDgmYDvaoY2mxTjIzWs/cERpXHlvvPc8+AVAhCAQHYCnRSkaDpDYkS+m4jQuDxHGAQgAAEIiEDuRfleGiLfSVibNQ5pykPHRm7qQoNBAAIQmI7Ao1INXVSHjF9OV2rvTNaYk5NzYxCAAARmT8CL8ZCGM3TsqqAZsNah9Q4ZX0JzL2g6kQoBCJRI4FqihyykQ8b67mFRGLRtRl6eKwwCEDhB4MsT29lcF4GvM5bjv/TwlDF/n9T+Cx257H2uxOSFAAQgEIXAvYQMuVvqO7bkn9HkuttyXgwCEDhBgDutE2Aq27zMVM+HTHlTpP1HiiA9YjQ9xjAEAhCAQDUE3LD63ikNHZerWaaYvCYjtzZFAcSAQI0EuNOqcVY/r2nx+cfJPu2U6WGybOkT5dSfa87SUyQiBBIToGklBhowXK67nY8BWVwq6e7SAYn2zzVnieQTBgLjEaBpjcc2SuRcV+0/RgEwQEcNNQwon6EQiEeAphVvTlIr+q/UAc+Mtztzv8i7PWQSl/OfKGQqmbQQOI8ATes8TiXvletRU64FP+Vc7VIGuyBWrrvjCySyKwTyEKBp5eFee9anigrcVVQLpUCgeAI0reKnMGQBNdxl7cHu9m94hQAE8hOgaeWfAxRAAAIQgMCZBGhaZ4JiNwhAAAIQyE+AppV/DmpU0NRYFDVBAAL5CdC08s9BjQqaiopqK6qFUiBQPAGaVvFT+GYBuzf3GGeHGn5tu4YaxpldokIgEwGaVibwE6b9ecJch6mWhx8KfZ+rBv4SR6EHDLLHJ0DTGp/xXDO0FRSeq2lVgI4SIDAOAZrWOFwjRX3IJOZ9prwp0+aqYZeyCGJBAAIQKIlAK7FD/79YfccvSgJ1pNXa+9Y9dFx7pIWPEIAABGZFYOgi2nd8VzBla+9b99BxJTf7gqcc6RCAQBQCWwkZupD2GX8fBUAPHZtMzB57aGUIBCAAgaoI3KqaPk0nxZi2QJLWnKL2PjE2BfJCMgQmI8AvYkyGOmuinzJm/z5j7r6pc2rm1937zhrjIACBagi0qqTPVX+qMVcFkYRVQZOFVAhAoF4CqRpQnzj+OU0Jv1xgjVt5nxpTjSmBU71nCZVBAAJhCGykJNXC2ieOf64W3dYS2Ke2VGPuowNCHwQgAIGpCFwrUarFtW8ca4hqnYT1rSvVuMh8os4buiAAgUoJNKor1eI6JE4XkO9VEDbLgGyQBAEIQCAbAT9+GtJwUo3tshH4fWI3Cv/MLVVtfeNsfy+NLRCAAATmTcCPn/ouqqnHdQGmopWGCA3LbD03GAQgAAEIHBBY6H3q5jMk3upA29RvIzVwM2ymBkA+CEAAAiUQWEvkkEaTeuxGepoJwTmXc6auY0i82wnrJxUEIACBogi0UjtkgR1jrB/RreS+ExzTVgoe5XHgIcd2zKKJDQEIQKB0AhsVcLhoRnm/lS4/tkvZvByrkzt2lDoPdVgXBgEIQAACrxC40neHC2e0974bWsuts695rGNEvLM65N31LZBxEJgjgXdzLJqafyVwr/8uC2FxJ53+Q7K7Z9fLFw/+j2xfQ6P39vfyVl6C7STyDyUIRSMEIACB3ARaCTi84uf99Dy63AcB+SEAAQiURGAjsTSrPAzMHoMABCAAgQsI+NEaTSsPg/1jzQumi10hAIH/AMGsCfyPqvfPNdtZU5i++B+U8h/TpyUjBCAAgfIJLFTCVs4d1zQMzNrMMQhAAAIQ6Emg1Tia1jQMzBqDAAR6EuDxYE9wlQ3bqR4eE44/qX4s+H/GT0MGCEAAAvMg4H+7xR3XOAzMlseC8ziPqHJEAr66xiCwJ7D/+RaL655ImtcnhfmjfJcmHFEgMF8CX863dCp/gYAX129e2M6mYQT+rOG7YSEYDQEIQAACpwh0+oLHhGkYmCUGAQhAAAIjE7hWfBrXMAY3I88R4SEAAQhA4IDAWu9pXP0YmB0GAQhAAAITE6BxXd60aFgTH6SkgwAEIHBIgMZ1fuOiYR0eObyHAAQgkImAfz7zC/4qAxpWpoOTtBCAAAReItBpI43rZQb+xRUMAhCAAASCEWil51FO8/rEwCyu5BgEIAABCAQl0EjXvXzujcsMzAKDAAQgAIECCKykca6N66aA+UEiBCAAAQgcEVjq85zuuraqtz1iwEcIQAACECiMwEp6H+U133m5RgwCEIAABCoh0KiOtby2xuWaXBsGAQhAAAIVEvAjw4289OblGlo5BgEIQAACMyDg5uW7lNKalzW3cgwCEIAABGZIoFHNK/lWHrWBWZs1NnIMAhCAAAQg8CsB/0Nc38lE+KUNa7AWa8IgAAEIQAACrxJo9e2N/F4+1R2YczlnK8cgAIHCCLwrTC9y6yWwUGn+GVgr/1reyP15iD1o8E7+k/xO7s9PcgwCECiUAE2r0ImbkeyFal0+13v4/hjBgzY8PW88fH+8H58hAAEIQAACEIAABCAAAQhAAAIQgAAEIAABCEAAAhCAAAQgAAEIQAACEIAABCAAAQhAAAIQgAAEIAABCEAAAhCAAAQgAAEIQAACEIDAbAn8f2toeBejzImjAAAAAElFTkSuQmCC;" parent="A-6-zeI3Z-jVhBnKLyq9-8" vertex="1">
          <mxGeometry x="20" y="5" width="20" height="20" as="geometry" />
        </mxCell>
        <mxCell id="A-6-zeI3Z-jVhBnKLyq9-9" value="" style="group" parent="1" vertex="1" connectable="0">
          <mxGeometry x="300" y="680" width="200" height="30" as="geometry" />
        </mxCell>
        <mxCell id="A-6-zeI3Z-jVhBnKLyq9-1" value="&lt;font face=&quot;Courier New&quot;&gt;workflows.events&lt;/font&gt;" style="shape=parallelogram;perimeter=parallelogramPerimeter;whiteSpace=wrap;html=1;fixedSize=1;" parent="A-6-zeI3Z-jVhBnKLyq9-9" vertex="1">
          <mxGeometry width="200" height="30" as="geometry" />
        </mxCell>
        <mxCell id="A-6-zeI3Z-jVhBnKLyq9-4" value="" style="shape=image;verticalLabelPosition=bottom;labelBackgroundColor=default;verticalAlign=top;aspect=fixed;imageAspect=0;image=data:image/png,iVBORw0KGgoAAAANSUhEUgAAAa0AAAGtCAYAAAClVis3AAAAAXNSR0IArs4c6QAAAGhlWElmTU0AKgAAAAgABAEGAAMAAAABAAIAAAESAAMAAAABAAEAAAEoAAMAAAABAAIAAIdpAAQAAAABAAAAPgAAAAAAA6ABAAMAAAABAAEAAKACAAQAAAABAAABraADAAQAAAABAAABrQAAAADrM55VAAAC5GlUWHRYTUw6Y29tLmFkb2JlLnhtcAAAAAAAPHg6eG1wbWV0YSB4bWxuczp4PSJhZG9iZTpuczptZXRhLyIgeDp4bXB0az0iWE1QIENvcmUgNi4wLjAiPgogICA8cmRmOlJERiB4bWxuczpyZGY9Imh0dHA6Ly93d3cudzMub3JnLzE5OTkvMDIvMjItcmRmLXN5bnRheC1ucyMiPgogICAgICA8cmRmOkRlc2NyaXB0aW9uIHJkZjphYm91dD0iIgogICAgICAgICAgICB4bWxuczp0aWZmPSJodHRwOi8vbnMuYWRvYmUuY29tL3RpZmYvMS4wLyIKICAgICAgICAgICAgeG1sbnM6ZXhpZj0iaHR0cDovL25zLmFkb2JlLmNvbS9leGlmLzEuMC8iPgogICAgICAgICA8dGlmZjpDb21wcmVzc2lvbj4xPC90aWZmOkNvbXByZXNzaW9uPgogICAgICAgICA8dGlmZjpSZXNvbHV0aW9uVW5pdD4yPC90aWZmOlJlc29sdXRpb25Vbml0PgogICAgICAgICA8dGlmZjpPcmllbnRhdGlvbj4xPC90aWZmOk9yaWVudGF0aW9uPgogICAgICAgICA8dGlmZjpQaG90b21ldHJpY0ludGVycHJldGF0aW9uPjI8L3RpZmY6UGhvdG9tZXRyaWNJbnRlcnByZXRhdGlvbj4KICAgICAgICAgPGV4aWY6UGl4ZWxYRGltZW5zaW9uPjQyOTwvZXhpZjpQaXhlbFhEaW1lbnNpb24+CiAgICAgICAgIDxleGlmOkNvbG9yU3BhY2U+MTwvZXhpZjpDb2xvclNwYWNlPgogICAgICAgICA8ZXhpZjpQaXhlbFlEaW1lbnNpb24+NDI5PC9leGlmOlBpeGVsWURpbWVuc2lvbj4KICAgICAgPC9yZGY6RGVzY3JpcHRpb24+CiAgIDwvcmRmOlJERj4KPC94OnhtcG1ldGE+CncA/6UAADKkSURBVHgB7Z1BeuNGsq1dvnd+eVdg9ArMnr1ZwbM3a/UKGl6B1SswewVyD9+I1aM3VPXwjSivQPIKSM/uTOoV+J3jEtssWpRIIIGMTPzxfWGSIDLixJ9ABgCp5C++wCAAAQhAAAIQgAAEIAABCEAAAhCAAAQgAAEIQAACEIAABCAAAQhAAAIQgAAEIAABCEAAAhCAAAQgAAEIQAACIQm8C6kKURD4jcBCb5fPHw/f/7bHp3cPenl63nj4/ng/PkMAAgUToGkVPHmVSd83pFZ1fS1v5Ev5EHPz2sl/kt/JaWaCgEEAAhCAQD8CrYbdyO/lv0zkzuWcrRyDAAQgAAEIvErgSt+u5Y/yqRrVqTzWYC3WhEEAAhCAAAR+JdDovyv5Vn6qgeTebm3W2MgxCEAAAhCYIYFGNa/luRvSpfmtuZVjEIAABCAwAwKNatzIL20W0fZ3Da0cgwAEIACBCgk0qmktj9Z8hupxTa4NgwAEIACBSgisVEeEX64Y2qBOjXdtrhGDAAQgAIGCCSyl/V5+arGvbftWtbZyDAIQgAAECiOwkt7amtK59bh2DAIQgAAECiCwkMaN/NwFvtb9fIfZyDEIQAACEAhKwI8Da/7Z1aUN1izaoHOFLAhAAAKzJtCp+ksX9bnsbzYYBCAAAQgEIXAjHXNpQH3rXAeZK2RAAAIQmDUBL8Z9F/K5jaNxzfpUoXgIQCA3ARrW5Q2bxpX7qCU/BCAwSwI0rMsb1i86Uuw0rlmeMhQNAQjkIkDD6t+waFy5jlryQgACsyTQqer9wsvrMBbXszyCKBoCEIDARASulIdGlZZBN9HckQYCEIDArAg0qpZ/OJy2YfkCwEz9j7IxCEAAAhBISOBesbjLGoeB2S4SzhWhIAABCMyawI2qp2GNy2A96yOM4iEAAQgkItAqDg1rGgb+mSEGAQj0JPCu5ziG1UPAj6z86Kqpp6TQlTxJ3R/kfsUgAIELCXx54f7sXh+B71VSU19ZYSvyRYIfxWIQgAAEIHAhgaX257FgHgbthXPF7hCAAARmT2AjAjStPAzMHoMABCAAgTMJXGk/GlZeBt2Zc8VuEIDAMwF+EWO+h8JWpTcFlO9fWHiQ/yjfPbtevrjzf2Ttr//9VEuj9+/lfuy5kEe3nQT+IbpI9EEAAhDITaCTgMh3WY/St5ZfyfuaxzqGY0WutZM+DAIQgAAEXiGw0XcRF/KtdHXylHdJjuWYjh21ZknDIAABCEDgJQKtNkZbvH03tJKPbddKEPHOqx27cOJDAAIQKJXAWsIjNa2N9DQTwvSd1608EgPrwSAAAQhA4IiAF+xIi/XqSN+UH33XFYlFM2Xx5IIABCBQAoFIC3UXANiVNER5XOi5wSAAAQhA4IDAvd7nvrtwk3CziGJLCYnQuLZRgKADAhCAQAQCjUTkbljO7yYRzaI0rohsos0VemZOgD+YO58D4CpAqd9Kw0MAHccSrOmvxxszfG4z5CQlBCAAgZAENlKV805rHZLK56JuMjPy41sMAhCAAAREIGfD2ir/opBZsNacrErhVMh0IhMCECiRQCvRORdi5y/FWgnNyeqqFFDohEAOAvxMKwf16XO206f8d8Y7vbOXYncSas9ly1yJyQsBCEAgCoFbCcl199BGgXCBDjeOXLw2F+hkVwhAAAJVEtiqqhyLcMm/WODmkYPZY5VHIEVBAAIQuIBAjsXXObsLNEbb1dpzceOXMaIdDeiBAAQmI9AqE4vv5bjdOHJx85xhEIDACwT4RYwXoFS2KddV+504PhXM0to/ZtLfZMpLWgiEJ0DTCj9FgwUuB0foF+DHfsNCjcpVQxOKAmIgEIgATSvQZFQm5a6Ceh4qqIESIFAVAZpWVdP5YjFfvbh1/I01LPi5ang//vSQAQJlEqBplTlvl6huLtk54b5PCWPlClVDDbnYkRcCoxCgaY2CdfZBdxURuKuoFkqBQPEEaFrFT2HIAnYhVSEKAhAongBNq/gppAAIQAAC8yFA05rPXFMpBCAAgeIJ0LSKn8KQBSxDquonquk3jFEQgMAYBGhaY1Al5qIiBE1FtVAKBIonQNMqfgrfLODhzT3G2aGGu61mHDRvRn16cw92gMBMCdC06p/4f2UqsYamlauGnzLNGWkhEJ4ATSv8FBUr8Otilf8mnL9M8RsL3kEgBAGaVohpGFXE3ajRTwe/Ov1VMd+0mZQ+ZMpLWgiEJ0DTCj9FgwU+DY7QL0CjYbker/VT/PmonPpzzdnnBPgEAQhAIBOBXP8zw5tM9aZIu1KQXNxS6CcGBCAAgWIJ3Et5jgX4UXkXhVLbZmLmvBgEIHCCAI8HT4CpbPNDpnrcsLpMuYekteZmSIABY3PN1QDJDIUABCCQlsC1wuW403LOEu+2ct1lmZfnCoMABCAwawJLVZ+raTlvST/bWmVm5bnCIAABCMyegO94cjauEhbj3M3dc4RBAAIQgIAIrOU5m9ZW+ReBZ8La7jMzug3MB2kQgAAEJiVwpWw5m5ZzR16U1wH4dNKAQQACEICACPhOInfTcn43h2gWoWGZTeQ70Whzhh4IQGAGBHyn48Uxt7tJRDFryc3D+SPfhUaZK3RAAAIzIxDhEeG+QbhZ5L6zsIa9ntyv3cyORcqFAAQgcBaBrfbKvUDv899Ly/Is1Wl3ahTOufc6cr8+pi2PaBCol8B/1lsalZ0g8A9t//7Ed1NvdsPayP8m/2Gi5NfK4/oXE+U7J82Hc3aa+T6er6V8/7rH8ZXeNPsPev3x4L3f3j1/3r8+f+QFAhAohUAjob8EdN/5tPKxrFVgN8iItTfShf1GoNHbTn4j95z5TjTFvDmO463kV3I3QAwCECiAwFoaUywCY8Rw8+oSMnQsL1RjaE0Rc52w1pJDuYmYxVaeguu5MXy83ciXcgwCEAhKoJGuc0/qXPv5qngt7+SN/FxrtGMn91jHyKX/3LyNNM7V9o0qyjxZx42cBhb4iHwXWBvSxiWwbwjjZkkX/UmhHuQ7+c/yQ/tKHxq5F5uFvBT7IKHfliI2kc5GcTr5X+SNPKrtJOzv8g9yH3sYBCCQmUCj/OfeDbDfOKw8B3OxRoWu5aUdS/u7L+vHIACBzARWyl/aIlKLXj+GmoM1KrLEZvXSceY6SrqTn8PxRY0zI+ATcCt/6QRl23hcfPVe++Ln+tyYazuOPHcree3zpxIxCMQkcCVZtS0s0evpYh4KyVRdK5IX9+jzMETfVvX53MEgAIEMBG6Vc8gJzNjz+W0yzO9UKRslcn1zOh587nDXJQgYBKYk4JOu9ivjCAupGTdTTuyEueZwd3XqGPK8thOyJhUEICACftRx6qRkexo2Zlyb+YLHdxscI59+hlfb/FIPBEITuJE6Fp9xGJhtbbZUQfdyjpnfGGzEw40cgwAEJiLgk45FKC0DL+y1WauCHuUcK79nsBUXN3QMAhCYgICvErl6/v1C1Hdx9sJe25V3p5r68pjLOM87jUsQMAhMQcAnG1fRwxfmGheuTsfGXBrP0Do9/60cgwAEJiBA4xq+ONd2pd3puBu6kM9x/NUE5yspIAABEaBx9V+ku8qOINczx4aTouYa77grO7wppyYCnYpJceLOKYaZ1WSdipnT/I1RK42rpjOCWsIT4I7rvEXbC1MXfjYvE9hq9zEW8TnG9PGxuAw/e0MAAn0J0LheX7xrvJJmzl+f8z6N914nII2r7yrEOAhcSKDR/j7p+pysNY8xEy/wNZkXVuZ6nGN9XdOBQi0QiE7Ai5lPupqb0CW13YpFjVfOzPG4x3in4waDAAQmJNAp16P8kgW+tn2vJ+Q9Zapu5vM6xXHqc2c55aSSCwIQ+HTSzfERkmuudcFpVNvcL0amaFrO4eMIgwAEMhBYKedcFjrXWrNtVNxUizZ5Pv1fkGs+nqgNAmEJNFJ2K691IfJi7hprtisVV+v8Ra3LF3tNzQcVtUEgOoFWAr3AR10kLtXlRziuqXZbqMCt/FI+7D+cmS/2MAhAIDOBVvk38lIXta20d/K52EqFljpXNehu53KgUScEohNoJbCkx4Yb6bXmOZnvsvyYqobFv9QafNxhEIBAIAKNtKzkW3m0hcWabuSNfI62VtHR5uQlPZ4na72Wt3I325dsqY2tfCXfyF+KFXFbK60YBCAQkIAXFTeJrTzX4uHc1nAln7N54c81B+fk9R2g58nHzBDzPN/Kz8mZa5/NkAIZCwEITEPAi9G13AuKF6ixFgzHdg7nck7sE4GVXsZiPiTuVro6+UKe0hoFW8uHaBtzbCttGAQgUAiBlXSOtSA4NvZ7AmNeKPSdy5Vkpm5Wx5U32uCLmL4axxpnTRgEIFAIgZV0jrUYODb2OYFOH8fi3SfuvfRMfRd8pZzRGncjTdgJAl+e2M5mCECgfgLfBSrxg7T8Uf4wsaaPmfK+VmakeXlNZ5bvaFpZsJMUAtkJNFIw9V3NqaK/1Rf2XLZT4m/kH+QRzHd/2AkCNK0TYNgMgcoJRFkY3aw+BGD9JA1RtDTSEuWCIsDUfC6BpvU5Dz5BYC4E/hKg0L9Kw4cAOg4luHF9PNyQ6X2E+clU+utpaVqv8+FbCNRIoFFRua/kP0jDD/KI5sb1kFnYVeb8YdPTtMJODcIgMBqB3AuiG4LvsqLak4S5cfk1lzVKvMyVPHJemlbk2UEbBMYh8H6csGdHzd0QzhHqxvq3c3YccZ92xNjFhqZpFTt1CIdAbwJt75HDB/6gEG4IJVhurbkvLkLOEU0r5LQgCgKjEVgq8mK06K8HftLXue9eXlf4+29zPsb0XGFHBGhaR0D4CIHKCeRcCP8utm5cJdmdxNpzWKOkduyAAE3rAAZvITADAk3GGj9kzD0k9T+GDB44thk4vrrhNK3qppSCIPAqgVw/J/koVbtXlcX98oOk5bpDbONiyaOMppWHO1khkItAkynxPzPlTZXWTTeHfZUjaeScNK3Is4M2CKQn0KQPeVbEXIv+WeLO2ClX023O0DarXWhas5puip05gSZT/Q/Km+vxWqqS71IFujDO4sL9q9+dplX9FFMgBP5NoPn3u2nf3E2bbpRsbrpuvlPbcuqE0fPRtKLPEPogUD6Bn8sv4dcKdpXUUXQZNK2ipw/xECiCQI47lDHA/DRGUGJeRoCmdRkv9oZAyQTaksWjHQImQNPiOIAABCAQm8Aitrxp1dG0puVNNghAAAKXEqBpHRCjaR3A4C0EIACBgAR2ATVlk0TTyoaexBCYnMBu8owkhEBiAjStxEAJB4HABHaZtDWZ8qZO+3XqgMS7nABN63JmjIAABC4j0Fy2e9i9a6kjLOBzhNG0zqHEPhCAwBACuf6y/BDNL43N8dcpdi8JmfM2mtacZz9W7f4NqTH/orVjz/23sO4yTXmbKW/KtLlq2KUsglgQgEB/Aq2GXstv5Vv5LxO5cznnSt7K52ZTcT7Oc1U46BvpP65pis8+VjEIQCADgUY5903qUe+nOOHPzeGFwdoaee22UYHnckm537pwsNtM3FaFc0M+BIoi0Eitm8G9POUCOGYsa625gbl5jMnvVGxfqCzkJVor0afqGnv7VYnA0AyBkgh4YerkG/nYJ/TY8d3AXEupi62k/86utWVsbqfid79TU8aGdUZmyzIQoRIC5RFoJPlG7ivqU4tWqdtdkxeuRl66tSog1zxsC4TXZOTlecIgAIHEBBrF84KeayGcOq9rbeUl29TMDvP5Tq8ku5XYQ/1Tvt+UBAqtEIhOoJHAnCf0lIvHS7m8oLTyEs3aX6ppim2+a20KgdZK5xRMTuVYFcIJmRAITaCRurX81Ik2t+1mYSYl2Upic86TL3aim3+OuZXn5NRGh4Q+CEQnsJJAXynnPJGj5jYbL3QlmH+4n5tj9MeEuZ8i+DzDIACBngRajdvKcy900fObkVmVYBHmsw0KaiVduY+1dVA2yIJAaAK+c7iR5z6BS8vvq/Sod12R5tR3E0t5JOskJsLxZh0YBCBwAYFW+27lEU7gEjV4QTbDSHYtMdYViWekxtUFYWMmUS96JA2DQDwCK0mKtLCVrOUmwPS20rANPKdepDt5TlspeZTjbJ0TBLkhUBIBX91t5FFO3lp03ItpjivnRnlvC5rPHA3e8xKNUStNGAQg8AaBpb7fymtpFNHqeBRbM57CvBCv5NEYnKPnXrpb+RTWKYnn5RxdU+2znaJwckCgdAKdCoh28k61SEydx6zHtE7Ba5jLW9XRyMewVkHv5VPP/Tn5OunCIACBVwh0+u6ck4l90nG6fmU++n7VauBGXts8uaYr+VDz3Wcnj9qsPG++2MAgAIFXCNzou9oWuVLqWb8yL5d81Whnxyql7r46vaDfyjv5Un6Oeb9rucf1zTvluJV0Ym8QePfG93xdL4G1SuvqLa+Iyj5I5bcDlK409ju57yLmaA8q+umFws1j+cL2yJtcxx/kL9UTWTfaIDAJATesKa8gyXWat+fiUrvSgK0crvUwuL70IGB/CMyFgBdJFrtYDDwn59hSO23kzF9dDLbnTD77QGCOBLw4suDFZOC5OWULfXEjZ+7qZNCemni2Q2DOBFYqnkUvNgM3pmPzY6NHOXNXJ4Pb4wnnMwQg8OkXLlj0ylj0uucDttXrVs681cvAFyO+i8YuIMBvD14Aq9Bd/XOQ+0K1z1X2RxV+NdfiZ1T3n1Wr5xq7gABN6wJYBe66kGZfrfsVgwAE4hD4IClD/rlDnEomVkLTmhj4xOk2ytdOnJN0EIDA6wQe9PU38qfXd+Pblwh8+dJGtlVBYKUq2ioqoQgI1EPAjcp3WDSsnnPKnVZPcMGHtdLnuywMAhCIRcB3WHexJJWlhjutsubrHLUL7bQ+Z0f2gQAEJiXgO6y7STNWmIymVd+kfq+SmvrKoqJMBD4o73/L/Yr1J/BXDf3QfzgjIVAngVZl/YLDIMEx4MfLS/mh+Z9OcHxdzmB9CJH3wwjwM61h/KKN3kpQE01UAj13zzF+fCPW++fv2zf24+vTBHb6yncFH1/YxY+eb+TdC9+x6WUCP2izeWIQgMARgZU+13AV7L8ScCu/li/lfc1jHcOxHLMGNmPWYEYr+UL+lq21w5haaondvQWS7yEwVwKNCi95YbZ2L4RX8rHMsZ2jZE5jLebm0sgvsRvtPJaeGuJ2l8BkXwjMjYAXnRJP9K10+27onKv7VHPqXM7p3CUyS6l5IwatvK91GphSTw2xfFG07AuUcRCYA4FGRZZ2sm+luZPntk4CrKU0fkP1emF17SnMCzR3r5+OoY1Y+KIIgwAEXiGw1ndDF7GpxntxW8mjndjWNJeFdwz+ns9b+VTHUcQ85opBAAJvEGj0fcQT+CVNG2m13qjWSJg1vqS9hm1uKq5xTLtW8Lk0//0xsVXN7ZhQiQ2BmgisVcz+5In8uioIuhfeyCwv1bZVPe2E/Bvl2sgv1Vni/ivVGe2pgSRhEIhJoJGs6Ce6r7pbeWm2lODS7xis3w04l10p8VYe/Rjto2+juho5BgEIXEBgpX37nHBTjbmXPi/+pVoj4a5hKl4p89xI90Iewdw43UBT1pcr1lZ1uBljEIBADwKRFwIv9lEWzR5o/z3ENbiWXIvkpXk30trIo5k5ruRe9C+tKcL+1n0tr+GYVhkYBKYn0CllhJP5JQ21NKz9rJbQuLyoXu0FB3/tpK+UC4FbaW3lGAQgMJCAT6aXGkbubbU1rP00RW5cblgl2lKib+SP8tzH7WF+87yWN3IMAhBIQKBRjMOTLMp7Lz5eiGo1N65oC+x+7pvCoV9JvxuYG8a+pilf75V3Ja/5+FV5GATyELhW2ilP6HNztXlwTJrVi9q5PKbcz8dELdaokE6+lruZjMFxo7huklfyhRwriMC7grQi9RMBn8hePCPZ3yRmFUnQiFrcILzgRbIHifljJEGJtfh4X8jb57hfP39+/njy5Unf/PT87Z1ed8+uFwwCEJiCQKMkY1x5DonpJjo385X6EGZjjG3mNgnUO08CX86z7GKrbgMq/zagprEluWZfxUeyq0hi0AKBsQjQtMYiO07cP40TtndUPxZ86D263IE7Sf97MPnvg+lBDgQgAIFQv732qPlYzHxOtqp/jEd9fWPOfDoofw4EuNMqZ5aXkhqpSfhO46kcfKMo9Z1mJGsjiUELBCAwbwLXKr/vFXjqcdxl/XYsbgPNi48RDAJVE+BOq5zp/TqQVO6yfpuMSD/bev+bLN5BAAIQyEvgXulT3zH1jdfkRREqux/Z9uWYetw2FBnEQAACsyaQeoHrG+921rPwcvFrbe7LM/U4N1EMAtUS4PFgGVPbBpL5z0BaokiJxGQZBQo6IDAGAZrWGFTTx2zSh+wd8WPvkfUOjMSkqRczlUHgiy9oWmUcBU0QmXfS8RRESzQZURpXEw0MeiCQkgBNKyXN8WJ9NV7oiyL/eNHe89o5CptIv2U6ryOAaichQNOaBPPgJM3gCGkC3KUJU2WUhyBVLYLoQAYERiFA0xoFa7VBoyzMEQHfBRHVBNGBDAiMQuDdKFEJmpqAfy06tz1JwH/nFhE8/1b6mgAaOa8DTAISxiHAndY4XGuMyl3W27O6e3sX9oAABIYQoGkNocdYCHxOYPf5Rz5BAAKpCdC0UhOtNx53Wm/P7c9v7zLJHotJspAEAhkI0LQyQC805b8K1T1H2cs5Fk3N8yBA04o/z018iSiEAAQgMA0BmtY0nMkCAQhAAAIJCNC0EkAcOcRu5PiEhwAEIFAMAZpWMVOVXeh/ZVeAgHMJ3J27I/tBoDQCNK3SZiyfXn64/zb7KH8j8m2l7AGBQgnQtAqdOGSHJNCEVIUoCFREgD/3UsZkRvgzTibF8fL68cKfcXqdD99CYDAB7rQGI5wkwN0kWd5O0ry9y6z3iMCHfwQ+60Ow/uJpWvXPccoK+bnWaZrt6a8m/eZp0mwkg8DEBGhaEwPvmW7Xc1zqYTSt00Tb019N+g1Na1LcJJuaAE1rauL98kX5m3Z/6id/FqPeB6nypyA6kAGBUQjQtEbBmjzoQ/KI/QL6TmvRb2jVo8ykDVLhLogOZEBgFAI0rVGwJg/6lDxi/4BX/YdWO7INVNkukBakQAACMybgX3uP4LcznoNTpZtJhLmxBgwCEIBACAL3UhFlYWxCEIkhwo8Go8zLNgYSVEBgPAI8HhyPberID6kDDojXDRhb29DrQAVFOkYCYUFKTQRoWuXMZqTfCvtO2HyHgX3xxV8CQfgxkBakQGAUAjStUbCOEvRulKj9grphRbrD6FfF8FGdQjTDwySLcJcsEoEgAAEIJCDwqBhRfn5iLXO+23Lt/hlSpPmQHAwCdRPgTqus+f0YSK4X7e8D6ZlayrUSNlMnfSXf3Svf8RUEIACBLAQ6ZY1yZb/XscxCIm/SJuA8uIliEIAABEIR8N3NvllEefWv4s/NNio4Cv+9jmZuk0C98yTwn/Msu9iqn6T8Qb4MVIG1rJ49kKzRpLjWdrTo/QL7mNj1Gxp+1EIKfYw1z/61Xr3N5u37979ueP7PTq92207+8/Or39/JMQhAYEIC18q1v7qO9NpOyCBXKi+SkZjvtfiYqMUaFeJ61vKtfF9jylc/HXD8Tt7IMQhAYEQCC8VOeQKniuXfJvSiXqs1Ksw1puKVMo61lWxXEr+Wb+UpuZwby3lv5DUfvyoPg0A+ArdKfe4JOeV+99LlplqbuSbXNiXLc3NtC4XtBrGWPwbjap438kaOQQACiQh0inPuojb1frU1rsgNaz+3XmhbeXQzy05uvXvtkV830tnKMQhAIAGByCd+LY2rhIZ1uOh7kW0SHFupQ5jjSh7truqQ3Wvvt9LeyTEIQGAAgZXGvnai5f7OjauRl2qlNazD+b4RdOvPbaU3q0Omfr+Vt7mhkh8CpRLwgnB8UkX77CvrtkDAS2ku9a5gfwxYf5eRvXOXznDP8vh1o9paOQYBCFxIYK39j0+oiJ9XF9aVc/frQpieO8/3qqedEKgb/kZ+rr6S97tRnb54xCAAgTMJNNqvlJPeC5n1RrVGwqyxFJ6X6rxVba5xTFsp+KW6St9/q5pbOQYBCJxJYK39SjrxV9Ib6erUWqyp1kdZx8eGa03Nv1HMjfw415w++64LgwAEziDQaJ/SFoetNHfy3NZJgLWUxm+oXjdo157CrhRkLg3/Le73YtGkgEoMCNROYK0C3zqhIn6/le6VPPWVv0KetP2dlXNHZDKlJi+y7UlSb39xrV2m1FtCLjfw9m107AGBeRPwQlz61e5aNVyNOI2O7RwlLHxTazSXRn6JwfL1Y6m7BCb7QmCOBFYqeurFbqx8t6rFV/GtvK+1GugYjjWWzpri+qJnJV/IXzN/D9Pzjikff1hiAu8SxyNcXgL3Sr/MK2GU7DtFtT/I/yV/yb7SxubAX9qHbW8T2GmXv8k/yI/NDWsjr/EYO6411ecPCvRtqmDEgUBtBFoVVNPVP7Xkm083Jx9Pe3PD8kURc3I5g/UeIq/DCfzH8BBECERgJy1eXP5XIE1IKZNAI9md3K8/yf+vnONKEHqY70x9Xv6/HmMZckTg3dFnPpZPYH9F3JRfChVAoCoCfkz4oaqKMhRD08oAfYKUvrLzoxwMAhCIReDPkvMxlqSy1PB4sKz5Olft/2hHX5C05w5gPwhAYBIC/1tZ/JjQ5yjWgwB3Wj2gFTTk+IfpBUlHKgSqJfCgyr6RP1Vb4YiFfTlibELnJ+BHEbv8MlAAAQgcEPDj+5uDz7y9gABN6wJYBe7qKzk3Lq7oypq8h7LkorYHgU5jrnqMm/0Qmlb9h4AXwL/WX2Y1FX6rSv4o9+OjnRyrl4D//dai3vKoDALDCHQazj8Mjc1g9cIUX2vbI3NX7bF7+8KcswkCEHgm4Cs7GldMBp6bU+arceYu5rylOJ/aUxPPdghAgMUvxSKTOoYb0jm21E4beer8xMvLdHvO5LMPBOZMYK3iWahiMPBcXGpXGuCFjjmsh4EfA2NnEODfaZ0BqdJdvFh2ldZWSlkfJNS/eNHXVhr4ndyPD+dodwdFP+n9noNflwfflfDW+v8g9ysGAQicIOB/K8LVeh4GvmhIYY2COFbt87h9rrPTayM/x9y4Orl/2eFRHp3RShoxCEDgDQKdvo9+Mtemb/XGnPT5utWgjbw2VmvV5NpSWKcgkRm5sWIQgMAZBDrtU8KVaA0LslmPaZ2Cb+Wls1qrhkY+hrUKupFHZNRJFwYBCJxBwI9StvKIJ3INmnxRYMZT2EJJVvISud1L91ScOuWKdrHmcxCDAATOJODFbiMvcbGLrNkLsdlObY0S3sojsznUtpLWqS3iMd9ODYF8ECidwEoFHC4mvO/P4ybAwdBKgxtn1Hl8lDZrzGkrJY/CZ50TBLkhUCqBVsK38igncmk6IizEx8depw3WFYml9Uz1OFCpXrVO30ZgYyYYBCDQg4AfndzII5zIJWm4FbMcjwPPmeJIcxqpYe3ZdXoT4Vi72gviFQIQuJxAqyFbeYSTObIGMzKrEswNIzfLZVBQ1wHYrIOyQRYEiiKwktoIi13uxfY4v5mYje9iSjA3i+Mapv7sxhDZ1hI3NZPDfD6mMAhAIAEBL8y5T+jDkzv3e7NoEnCdMsRKyXJyu52y2J65fJxvM3Nqe2pnGAQg8AKBRtu8YOdc/HLmdu1mUKJtJDoXO99BuCGUYK1E5uLkvCs5BgEIJCbQKN5anvPknjK3a3XNJduUvI5zRX8seDyvvis8rmGqz5tjMXyGAATSEWgUaiX3lfRUJ/VUeVyTa2vkpVurAqbidpxnWyC8JiMvH3cYBCAwAYFOOXJeoR4vln0/uwbXUpP5Tqcvj6HjukJBrjMyWxbKDNkQKJKAf3bhRbKkBrZ51tzotUbLtQD7rsHHQ4nWSvTQht13/FWJwNAMgRoIeMHq5F40t/K+J3HqcdaylnfyUhdVST/bNtozNcNz4plxybaV+HPqTL3PqmRoaIdATQQaFdPJb+QbeeqT/VQ853LOTt7I52anuIy9vfQ7Bh8zYzN6Kf7t3A5Q6oVASQRWEvvSiZtim2Nj4/F9a45KZ9+qgLdqHOP7TengUuv/MnVA4kEAAmEJtJmU3WXKmzJtrhqalEXUEIumVcMsUgMEYhP4Mba8s9Xdnb1nuh2bdKHqiETTqmMeqQICkQnsIou7QFstdVxQcrxdaVrx5gRFEBiLQDNW4Dfi7t74vpSvfy5FaM06aVo1zy61QeBzAs3nH/kEgfII0LTKmzMUQwACEJgtAZrWbKeewiEAAQiUR4CmVd6coRgCEIDAbAnQtGY79RQ+QwJ3M6yZkisjQNOqbEIpBwIBCSwDauoj6es+gxiTlgBNKy1PokEAAr8n8NXvNxW5pSlSdWWiaVqVTSjlQOAVArtXvhvzq3bM4BPGznHH+DBhfUWkomkVMU2IhEASArskUS4P4sV+cfmwUCOuMql5ypQ3bFqaVtipQRgERiGwGyXq20FzLfpvKztvj/fn7ZZ8r4fkEQsPSNMqfAKRD4ELCewu3D/V7n9KFShTnC5T3n9lyhs2LU0r7NQgDAKjEMj1F9d9p9WMUtH4Qa19MX6aFzPcvbh1xhtpWjOefEqfJYFdxqq/y5h7SOqcunk8eDRzNK0jIHyEQOUE7jLW1yl3rjuWvmW3GmjPYTslfcqROHJOmlbk2UEbBNIT2ClkroXQDesmfUmjRvx+1OivB394/et5fkvTmue8U/W8CdxlLL9T7jZj/ktSX2fWmuvnj5cwmnxfmtbkyEkIgewE/plZwVr5fdcV2RqJy3mXZTYf/R/scwI0rc958AkCcyBwl7nIRvkjPyZ0Q72V52ysO+W3Y0cEaFpHQPgIgRkQ2KnGh8x1dsq/yqzhVHo31OWpLyfa/nGiPMWloWkVN2UIhkASAv9IEmVYED9+64aFSD7ajy4jaIowP8nhpghI00pBkRgQKI9AlCv5KE3CMxhFy05act8Jm0dIo2mFnBZEQWB0AjtluBs9y3kJ3CzsuWyhxBt5l0vAUV7uso6AHH6kaR3S4D0E5kUg0uLYCf29vJFPaa2SbeV+jWIfogiJqIOmFXFW0ASBaQh8UJqnaVKdlWWpvdy4VnLf/YxpjYL77s53WGPnUoqz7aP23J29NztCAAKTE/BCdS33rxj7iveXkdyxncO5nBP7RGCll7GYD4nr+erkC3lKaxTsRv4oH6JvrLGtdGEQgEAwAlfS44XDC9NYJ/9bcZ17LbeWOZubQtQF3HNobT5WlvK+5ho9z7fyt46LnN9v+hbIOAhAID2BRiG9+GzlOReGl3LvF0ZrnKOtVPRLXKJt20rnWn4tb+WN/CVrtdFNaiXfyKPVcUpPK60YBCCQmUCr/CUtHNbqBW9OtlCxbtynFlO2j8/Gxx0GAQhkJNAp91Ze6oJn7a5hLrZSoaXOVQ2627kcaNQJgWgEWgnygl/DQuIaXMsc7rx8t1XTvJV0/PlnbRgEIDAxgUb5NvKSFotLtLq2pbxmc3O+hAn7Duflx7K+YMAgAIEJCayUay4LmGut2XzVP5e5jFDndc0HE7VBIBoB33ncyyOc/FNqcM2uvUbzVb+v/qfkOddcmxoPIGqCQFQCvkKc62Kzr9sMarQrFbWvkddxWPjCoKnx4KEmCEQj4CvxWzmL2ScGZmEmtdlaBTHH4zHwhQEGAQiMTKBR/Hs5i9nnDMxkKa/J3IiZ68/nOdVxf1PTgUItEIhKwIvyozzViVtbHLOprXE1zHny490XAhgEIDAygVbxaVhvN2wz6uQ1mRtxbRcYuepxw/IdLAYBCIxIoFPsXCd5qXnNrCbrVEypcxFFty9oarsTr+kYp5ZKCPgk4w6r34LdVXIM7MtwPVEaQGk6aFj7o4hXCIxIgIY1fJFuR5yfHKE7JS2tYeTWS8PKcaSSc3YEaFhpFucaF6xOZ0PuRlBK/hrnf3aLIQXHJ7CQxK28lIUhuk4vXGZak3UqJjr33PpoWDUd8dQSmsA9C1LyBdlMa2tc3I2fbtw1znfoRQtx8yVwo9JzX6HWmn9d4WHVqCYucj4/Z27FpLYLlAoPXUqqgcCViqi1YUSpq6vhQDmqwQu0G3IUxjl1XB+x4SMEIDASAS88j/KcJ/wccptxI6/RfNEz12Noq9qXNU4qNUEgKoGNhM2haUSo0axrtUaFze1YulHNvujDIACBiQj4CjnCYj4nDdcTzW2uND6mar/r2qrGNhdg8kJgrgR8hVj74hKxGZq52ddsrm8tj8h/iCbP3XXNE0dtEIhM4EbihpzAjO3Pbx35wEiobalYmwqOMzerlbz2iw2ViEEgJoFGsmg6eRl4DuZibl5u1KUdczSrYEfou2B6kDMdAS8g3XTpBmd6UIQn+Y8nIr3X9ubZT+wSbvOdFH0TTtW4ghqF7+TfySPftfh4+7v8o9zHHQYBCGQk0Ch39CteX+G6sV7JF/Jzzft6jMc6RvQ6W2mcq0Wbp60m4ka+nOuEUDcEohLwgh51Md9ImxezVOZYjhm13ttUhRYex/PkhrGVTzlX9895aVQCgUEgIoFGoqZcFM7NtZGuVj6WtQrsHOfqmXK/Rrqw3wg0eusmtpJ7zh7lKeZj+xxvpVfHX8ixwgjwM63CJiyB3JVifJ8gTqoQTwr0N/kPqQK+EafT976ij7Rgufa/yrHXCbTPXy/1es787bSf/Un+IMcgAIECCaS6ak1x5etHM16AprZGCZ07RQ0pYnhOMAhAAAIQOCJwpc8pFtkUMW6lZXGkb+qP60A8uqmLJx8EIACB6ATcKFI0nKEx3CyiWJTG5bnBIAABCEDgmYDvaoY2mxTjIzWs/cERpXHlvvPc8+AVAhCAQHYCnRSkaDpDYkS+m4jQuDxHGAQgAAEIiEDuRfleGiLfSVibNQ5pykPHRm7qQoNBAAIQmI7Ao1INXVSHjF9OV2rvTNaYk5NzYxCAAARmT8CL8ZCGM3TsqqAZsNah9Q4ZX0JzL2g6kQoBCJRI4FqihyykQ8b67mFRGLRtRl6eKwwCEDhB4MsT29lcF4GvM5bjv/TwlDF/n9T+Cx257H2uxOSFAAQgEIXAvYQMuVvqO7bkn9HkuttyXgwCEDhBgDutE2Aq27zMVM+HTHlTpP1HiiA9YjQ9xjAEAhCAQDUE3LD63ikNHZerWaaYvCYjtzZFAcSAQI0EuNOqcVY/r2nx+cfJPu2U6WGybOkT5dSfa87SUyQiBBIToGklBhowXK67nY8BWVwq6e7SAYn2zzVnieQTBgLjEaBpjcc2SuRcV+0/RgEwQEcNNQwon6EQiEeAphVvTlIr+q/UAc+Mtztzv8i7PWQSl/OfKGQqmbQQOI8ATes8TiXvletRU64FP+Vc7VIGuyBWrrvjCySyKwTyEKBp5eFee9anigrcVVQLpUCgeAI0reKnMGQBNdxl7cHu9m94hQAE8hOgaeWfAxRAAAIQgMCZBGhaZ4JiNwhAAAIQyE+AppV/DmpU0NRYFDVBAAL5CdC08s9BjQqaiopqK6qFUiBQPAGaVvFT+GYBuzf3GGeHGn5tu4YaxpldokIgEwGaVibwE6b9ecJch6mWhx8KfZ+rBv4SR6EHDLLHJ0DTGp/xXDO0FRSeq2lVgI4SIDAOAZrWOFwjRX3IJOZ9prwp0+aqYZeyCGJBAAIQKIlAK7FD/79YfccvSgJ1pNXa+9Y9dFx7pIWPEIAABGZFYOgi2nd8VzBla+9b99BxJTf7gqcc6RCAQBQCWwkZupD2GX8fBUAPHZtMzB57aGUIBCAAgaoI3KqaPk0nxZi2QJLWnKL2PjE2BfJCMgQmI8AvYkyGOmuinzJm/z5j7r6pc2rm1937zhrjIACBagi0qqTPVX+qMVcFkYRVQZOFVAhAoF4CqRpQnzj+OU0Jv1xgjVt5nxpTjSmBU71nCZVBAAJhCGykJNXC2ieOf64W3dYS2Ke2VGPuowNCHwQgAIGpCFwrUarFtW8ca4hqnYT1rSvVuMh8os4buiAAgUoJNKor1eI6JE4XkO9VEDbLgGyQBAEIQCAbAT9+GtJwUo3tshH4fWI3Cv/MLVVtfeNsfy+NLRCAAATmTcCPn/ouqqnHdQGmopWGCA3LbD03GAQgAAEIHBBY6H3q5jMk3upA29RvIzVwM2ymBkA+CEAAAiUQWEvkkEaTeuxGepoJwTmXc6auY0i82wnrJxUEIACBogi0UjtkgR1jrB/RreS+ExzTVgoe5XHgIcd2zKKJDQEIQKB0AhsVcLhoRnm/lS4/tkvZvByrkzt2lDoPdVgXBgEIQAACrxC40neHC2e0974bWsuts695rGNEvLM65N31LZBxEJgjgXdzLJqafyVwr/8uC2FxJ53+Q7K7Z9fLFw/+j2xfQ6P39vfyVl6C7STyDyUIRSMEIACB3ARaCTi84uf99Dy63AcB+SEAAQiURGAjsTSrPAzMHoMABCAAgQsI+NEaTSsPg/1jzQumi10hAIH/AMGsCfyPqvfPNdtZU5i++B+U8h/TpyUjBCAAgfIJLFTCVs4d1zQMzNrMMQhAAAIQ6Emg1Tia1jQMzBqDAAR6EuDxYE9wlQ3bqR4eE44/qX4s+H/GT0MGCEAAAvMg4H+7xR3XOAzMlseC8ziPqHJEAr66xiCwJ7D/+RaL655ImtcnhfmjfJcmHFEgMF8CX863dCp/gYAX129e2M6mYQT+rOG7YSEYDQEIQAACpwh0+oLHhGkYmCUGAQhAAAIjE7hWfBrXMAY3I88R4SEAAQhA4IDAWu9pXP0YmB0GAQhAAAITE6BxXd60aFgTH6SkgwAEIHBIgMZ1fuOiYR0eObyHAAQgkImAfz7zC/4qAxpWpoOTtBCAAAReItBpI43rZQb+xRUMAhCAAASCEWil51FO8/rEwCyu5BgEIAABCAQl0EjXvXzujcsMzAKDAAQgAIECCKykca6N66aA+UEiBCAAAQgcEVjq85zuuraqtz1iwEcIQAACECiMwEp6H+U133m5RgwCEIAABCoh0KiOtby2xuWaXBsGAQhAAAIVEvAjw4289OblGlo5BgEIQAACMyDg5uW7lNKalzW3cgwCEIAABGZIoFHNK/lWHrWBWZs1NnIMAhCAAAQg8CsB/0Nc38lE+KUNa7AWa8IgAAEIQAACrxJo9e2N/F4+1R2YczlnK8cgAIHCCLwrTC9y6yWwUGn+GVgr/1reyP15iD1o8E7+k/xO7s9PcgwCECiUAE2r0ImbkeyFal0+13v4/hjBgzY8PW88fH+8H58hAAEIQAACEIAABCAAAQhAAAIQgAAEIAABCEAAAhCAAAQgAAEIQAACEIAABCAAAQhAAAIQgAAEIAABCEAAAhCAAAQgAAEIQAACEIDAbAn8f2toeBejzImjAAAAAElFTkSuQmCC;" parent="A-6-zeI3Z-jVhBnKLyq9-9" vertex="1">
          <mxGeometry x="20" y="5" width="20" height="20" as="geometry" />
        </mxCell>
        <mxCell id="A-6-zeI3Z-jVhBnKLyq9-10" value="" style="group" parent="1" vertex="1" connectable="0">
          <mxGeometry x="290" y="600" width="220" height="50" as="geometry" />
        </mxCell>
        <mxCell id="A-6-zeI3Z-jVhBnKLyq9-6" value="&lt;div&gt;&lt;font face=&quot;Courier New&quot;&gt;workflows-aggregator&lt;/font&gt;&lt;/div&gt;&lt;font face=&quot;Courier New&quot;&gt;StatefulSet&lt;/font&gt;" style="rounded=0;whiteSpace=wrap;html=1;" parent="A-6-zeI3Z-jVhBnKLyq9-10" vertex="1">
          <mxGeometry width="220" height="50" as="geometry" />
        </mxCell>
        <mxCell id="A-6-zeI3Z-jVhBnKLyq9-11" value="" style="endArrow=classic;html=1;rounded=0;exitX=0.5;exitY=0;exitDx=0;exitDy=0;entryX=0.5;entryY=1;entryDx=0;entryDy=0;" parent="1" source="A-6-zeI3Z-jVhBnKLyq9-1" target="A-6-zeI3Z-jVhBnKLyq9-6" edge="1">
          <mxGeometry width="50" height="50" relative="1" as="geometry">
            <mxPoint x="420" y="711" as="sourcePoint" />
            <mxPoint x="470" y="661" as="targetPoint" />
          </mxGeometry>
        </mxCell>
        <mxCell id="A-6-zeI3Z-jVhBnKLyq9-12" value="" style="endArrow=classic;html=1;rounded=0;exitX=0.5;exitY=0;exitDx=0;exitDy=0;" parent="1" source="A-6-zeI3Z-jVhBnKLyq9-6" target="A-6-zeI3Z-jVhBnKLyq9-2" edge="1">
          <mxGeometry width="50" height="50" relative="1" as="geometry">
            <mxPoint x="410" y="749" as="sourcePoint" />
            <mxPoint x="410" y="689" as="targetPoint" />
          </mxGeometry>
        </mxCell>
        <mxCell id="A-6-zeI3Z-jVhBnKLyq9-13" value="" style="group" parent="1" vertex="1" connectable="0">
          <mxGeometry x="550" y="530" width="220" height="50" as="geometry" />
        </mxCell>
        <mxCell id="A-6-zeI3Z-jVhBnKLyq9-14" value="&lt;div&gt;&lt;font face=&quot;Courier New&quot;&gt;workflows-sink&lt;/font&gt;&lt;/div&gt;&lt;font face=&quot;Courier New&quot;&gt;Deployment&lt;/font&gt;" style="rounded=0;whiteSpace=wrap;html=1;" parent="A-6-zeI3Z-jVhBnKLyq9-13" vertex="1">
          <mxGeometry width="220" height="50.00040000320005" as="geometry" />
        </mxCell>
        <mxCell id="A-6-zeI3Z-jVhBnKLyq9-16" value="" style="endArrow=classic;html=1;rounded=0;exitX=1;exitY=0.5;exitDx=0;exitDy=0;entryX=0;entryY=0.5;entryDx=0;entryDy=0;" parent="1" source="A-6-zeI3Z-jVhBnKLyq9-2" target="A-6-zeI3Z-jVhBnKLyq9-14" edge="1">
          <mxGeometry width="50" height="50" relative="1" as="geometry">
            <mxPoint x="410" y="639" as="sourcePoint" />
            <mxPoint x="410" y="579" as="targetPoint" />
          </mxGeometry>
        </mxCell>
        <mxCell id="A-6-zeI3Z-jVhBnKLyq9-25" value="&lt;div&gt;&lt;br&gt;&lt;/div&gt;&lt;div&gt;&lt;br&gt;&lt;/div&gt;&lt;div&gt;&lt;br&gt;&lt;/div&gt;&lt;div&gt;&lt;br&gt;&lt;/div&gt;&lt;div&gt;&lt;br&gt;&lt;/div&gt;&lt;div&gt;&lt;br&gt;&lt;/div&gt;&lt;div&gt;&lt;br&gt;&lt;/div&gt;&lt;div&gt;&lt;br&gt;&lt;/div&gt;&lt;div&gt;&lt;br&gt;&lt;/div&gt;&lt;div&gt;&lt;br&gt;&lt;/div&gt;&lt;div&gt;&lt;br&gt;&lt;/div&gt;" style="rounded=0;whiteSpace=wrap;html=1;fillColor=#E6E6E6;container=0;" parent="1" vertex="1">
          <mxGeometry x="500" y="225" width="320" height="110" as="geometry" />
        </mxCell>
        <mxCell id="A-6-zeI3Z-jVhBnKLyq9-23" value="&lt;div&gt;&lt;font face=&quot;Courier New&quot;&gt;mongodb/percona-server-mongodb-operator&lt;/font&gt;&lt;/div&gt;&lt;font face=&quot;Courier New&quot;&gt;Deployment&lt;/font&gt;" style="rounded=0;whiteSpace=wrap;html=1;container=0;" parent="1" vertex="1">
          <mxGeometry x="510" y="235" width="300" height="40" as="geometry" />
        </mxCell>
        <mxCell id="Qr_dwRY2gjO2oXWCvikJ-1" value="&lt;font style=&quot;font-size: 14px;&quot;&gt;MongoDB&lt;/font&gt;" style="text;html=1;strokeColor=none;fillColor=none;align=center;verticalAlign=middle;whiteSpace=wrap;rounded=0;container=0;" parent="1" vertex="1">
          <mxGeometry x="740" y="305" width="90" height="30" as="geometry" />
        </mxCell>
        <mxCell id="A-6-zeI3Z-jVhBnKLyq9-20" value="&lt;div&gt;&lt;font face=&quot;Courier New&quot;&gt;mongodb/dyff-datastore-rs0&lt;/font&gt;&lt;/div&gt;&lt;font face=&quot;Courier New&quot;&gt;StatefulSet&lt;/font&gt;" style="rounded=0;whiteSpace=wrap;html=1;container=0;" parent="1" vertex="1">
          <mxGeometry x="510" y="285" width="230" height="40" as="geometry" />
        </mxCell>
        <mxCell id="Qr_dwRY2gjO2oXWCvikJ-9" value="" style="endArrow=classic;html=1;rounded=0;startArrow=classic;startFill=1;exitX=1;exitY=0.5;exitDx=0;exitDy=0;entryX=0;entryY=0.25;entryDx=0;entryDy=0;" parent="1" source="Qr_dwRY2gjO2oXWCvikJ-5" target="A-6-zeI3Z-jVhBnKLyq9-25" edge="1">
          <mxGeometry relative="1" as="geometry">
            <mxPoint x="330" y="413.5" as="sourcePoint" />
            <mxPoint x="490" y="225" as="targetPoint" />
          </mxGeometry>
        </mxCell>
        <mxCell id="Qr_dwRY2gjO2oXWCvikJ-10" value="Queries" style="edgeLabel;resizable=0;html=1;align=center;verticalAlign=middle;" parent="Qr_dwRY2gjO2oXWCvikJ-9" connectable="0" vertex="1">
          <mxGeometry relative="1" as="geometry" />
        </mxCell>
        <mxCell id="Qr_dwRY2gjO2oXWCvikJ-14" value="" style="endArrow=classic;html=1;rounded=0;exitX=0.5;exitY=1;exitDx=0;exitDy=0;entryX=0;entryY=0.5;entryDx=0;entryDy=0;edgeStyle=elbowEdgeStyle;" parent="1" source="Qr_dwRY2gjO2oXWCvikJ-5" target="A-6-zeI3Z-jVhBnKLyq9-1" edge="1">
          <mxGeometry relative="1" as="geometry">
            <mxPoint x="170" y="609" as="sourcePoint" />
            <mxPoint x="270" y="609" as="targetPoint" />
            <Array as="points">
              <mxPoint x="200" y="589" />
            </Array>
          </mxGeometry>
        </mxCell>
        <mxCell id="Qr_dwRY2gjO2oXWCvikJ-15" value="Commands" style="edgeLabel;resizable=0;html=1;align=center;verticalAlign=middle;" parent="Qr_dwRY2gjO2oXWCvikJ-14" connectable="0" vertex="1">
          <mxGeometry relative="1" as="geometry" />
        </mxCell>
        <mxCell id="Qr_dwRY2gjO2oXWCvikJ-17" value="" style="group" parent="1" vertex="1" connectable="0">
          <mxGeometry x="180" y="225" width="120" height="55" as="geometry" />
        </mxCell>
        <mxCell id="Qr_dwRY2gjO2oXWCvikJ-5" value="&lt;div&gt;&lt;font face=&quot;Courier New&quot;&gt;api-server&lt;/font&gt;&lt;/div&gt;&lt;div&gt;&lt;font face=&quot;Courier New&quot;&gt;Deployment&lt;br&gt;&lt;/font&gt;&lt;/div&gt;" style="rounded=0;whiteSpace=wrap;html=1;" parent="Qr_dwRY2gjO2oXWCvikJ-17" vertex="1">
          <mxGeometry width="120" height="54.999999999999986" as="geometry" />
        </mxCell>
        <mxCell id="Qr_dwRY2gjO2oXWCvikJ-18" value="" style="group" parent="1" vertex="1" connectable="0">
          <mxGeometry x="600" y="670" width="130" height="50" as="geometry" />
        </mxCell>
        <mxCell id="Qr_dwRY2gjO2oXWCvikJ-19" value="&lt;div&gt;&lt;font face=&quot;Courier New&quot;&gt;orchestrator&lt;/font&gt;&lt;/div&gt;&lt;div&gt;&lt;font face=&quot;Courier New&quot;&gt;StatefulSet&lt;br&gt;&lt;/font&gt;&lt;/div&gt;" style="rounded=0;whiteSpace=wrap;html=1;" parent="Qr_dwRY2gjO2oXWCvikJ-18" vertex="1">
          <mxGeometry width="130.00000000000003" height="50" as="geometry" />
        </mxCell>
        <mxCell id="Qr_dwRY2gjO2oXWCvikJ-21" value="" style="group" parent="1" vertex="1" connectable="0">
          <mxGeometry x="540" y="950" width="250" height="50" as="geometry" />
        </mxCell>
        <mxCell id="Qr_dwRY2gjO2oXWCvikJ-22" value="&lt;div&gt;&lt;font face=&quot;Courier New&quot;&gt;dyff-operator-system/&lt;/font&gt;&lt;/div&gt;&lt;div&gt;&lt;font face=&quot;Courier New&quot;&gt;dyff-operator-controller-manager&lt;/font&gt;&lt;/div&gt;&lt;div&gt;&lt;font face=&quot;Courier New&quot;&gt;Deployment&lt;br&gt;&lt;/font&gt;&lt;/div&gt;" style="rounded=0;whiteSpace=wrap;html=1;" parent="Qr_dwRY2gjO2oXWCvikJ-21" vertex="1">
          <mxGeometry width="250.00000000000003" height="50" as="geometry" />
        </mxCell>
        <mxCell id="Qr_dwRY2gjO2oXWCvikJ-24" value="" style="group" parent="1" vertex="1" connectable="0">
          <mxGeometry x="310" y="759" width="180" height="51" as="geometry" />
        </mxCell>
        <mxCell id="Qr_dwRY2gjO2oXWCvikJ-25" value="&lt;div&gt;&lt;font face=&quot;Courier New&quot;&gt;workflows-informer&lt;/font&gt;&lt;/div&gt;&lt;font face=&quot;Courier New&quot;&gt;Deployment&lt;/font&gt;" style="rounded=0;whiteSpace=wrap;html=1;" parent="Qr_dwRY2gjO2oXWCvikJ-24" vertex="1">
          <mxGeometry width="180" height="50" as="geometry" />
        </mxCell>
        <mxCell id="Qr_dwRY2gjO2oXWCvikJ-28" value="&lt;div&gt;k8s custom resource&lt;/div&gt;&lt;div&gt;e.g. &lt;font face=&quot;Courier New&quot;&gt;evaluations.dyff.io&lt;/font&gt;&lt;br&gt;&lt;/div&gt;" style="shape=note;whiteSpace=wrap;html=1;backgroundOutline=1;darkOpacity=0.05;" parent="1" vertex="1">
          <mxGeometry x="570" y="850" width="190" height="70" as="geometry" />
        </mxCell>
        <mxCell id="Qr_dwRY2gjO2oXWCvikJ-30" value="k8s API" style="endArrow=classic;html=1;rounded=0;exitX=0.5;exitY=1;exitDx=0;exitDy=0;entryX=0.5;entryY=0;entryDx=0;entryDy=0;entryPerimeter=0;startArrow=classic;startFill=1;" parent="1" source="Qr_dwRY2gjO2oXWCvikJ-19" target="Qr_dwRY2gjO2oXWCvikJ-28" edge="1">
          <mxGeometry width="50" height="50" relative="1" as="geometry">
            <mxPoint x="400" y="690" as="sourcePoint" />
            <mxPoint x="400" y="630" as="targetPoint" />
          </mxGeometry>
        </mxCell>
        <mxCell id="Qr_dwRY2gjO2oXWCvikJ-32" value="" style="endArrow=classic;html=1;rounded=0;exitX=0.5;exitY=1;exitDx=0;exitDy=0;exitPerimeter=0;entryX=0.5;entryY=0;entryDx=0;entryDy=0;" parent="1" source="Qr_dwRY2gjO2oXWCvikJ-28" target="Qr_dwRY2gjO2oXWCvikJ-22" edge="1">
          <mxGeometry width="50" height="50" relative="1" as="geometry">
            <mxPoint x="670" y="730" as="sourcePoint" />
            <mxPoint x="720" y="840" as="targetPoint" />
          </mxGeometry>
        </mxCell>
        <mxCell id="Qr_dwRY2gjO2oXWCvikJ-38" value="" style="endArrow=classic;html=1;rounded=0;exitX=0;exitY=0.5;exitDx=0;exitDy=0;entryX=1;entryY=0.5;entryDx=0;entryDy=0;" parent="1" source="Qr_dwRY2gjO2oXWCvikJ-22" target="Qr_dwRY2gjO2oXWCvikJ-34" edge="1">
          <mxGeometry relative="1" as="geometry">
            <mxPoint x="500" y="900" as="sourcePoint" />
            <mxPoint x="600" y="900" as="targetPoint" />
          </mxGeometry>
        </mxCell>
        <mxCell id="Qr_dwRY2gjO2oXWCvikJ-39" value="manages" style="edgeLabel;resizable=0;html=1;align=center;verticalAlign=middle;" parent="Qr_dwRY2gjO2oXWCvikJ-38" connectable="0" vertex="1">
          <mxGeometry relative="1" as="geometry" />
        </mxCell>
        <mxCell id="Qr_dwRY2gjO2oXWCvikJ-40" value="" style="endArrow=classic;html=1;rounded=0;exitX=0.5;exitY=0;exitDx=0;exitDy=0;entryX=0.5;entryY=1;entryDx=0;entryDy=0;edgeStyle=orthogonalEdgeStyle;" parent="1" source="Qr_dwRY2gjO2oXWCvikJ-34" target="Qr_dwRY2gjO2oXWCvikJ-25" edge="1">
          <mxGeometry relative="1" as="geometry">
            <mxPoint x="510" y="820" as="sourcePoint" />
            <mxPoint x="610" y="820" as="targetPoint" />
          </mxGeometry>
        </mxCell>
        <mxCell id="Qr_dwRY2gjO2oXWCvikJ-41" value="k8s API watch" style="edgeLabel;resizable=0;html=1;align=center;verticalAlign=middle;" parent="Qr_dwRY2gjO2oXWCvikJ-40" connectable="0" vertex="1">
          <mxGeometry relative="1" as="geometry" />
        </mxCell>
        <mxCell id="Qr_dwRY2gjO2oXWCvikJ-43" value="" style="endArrow=classic;html=1;rounded=0;exitX=0;exitY=0.5;exitDx=0;exitDy=0;entryX=1;entryY=0.5;entryDx=0;entryDy=0;" parent="1" source="Qr_dwRY2gjO2oXWCvikJ-19" target="A-6-zeI3Z-jVhBnKLyq9-1" edge="1">
          <mxGeometry relative="1" as="geometry">
            <mxPoint x="510" y="750" as="sourcePoint" />
            <mxPoint x="610" y="750" as="targetPoint" />
          </mxGeometry>
        </mxCell>
        <mxCell id="Qr_dwRY2gjO2oXWCvikJ-44" value="workflow status" style="edgeLabel;resizable=0;html=1;align=center;verticalAlign=middle;" parent="Qr_dwRY2gjO2oXWCvikJ-43" connectable="0" vertex="1">
          <mxGeometry relative="1" as="geometry" />
        </mxCell>
        <mxCell id="Qr_dwRY2gjO2oXWCvikJ-45" value="" style="endArrow=classic;html=1;rounded=0;exitX=1;exitY=0.5;exitDx=0;exitDy=0;entryX=0.5;entryY=0;entryDx=0;entryDy=0;" parent="1" source="A-6-zeI3Z-jVhBnKLyq9-2" target="Qr_dwRY2gjO2oXWCvikJ-19" edge="1">
          <mxGeometry width="50" height="50" relative="1" as="geometry">
            <mxPoint x="510" y="589" as="sourcePoint" />
            <mxPoint x="590" y="789" as="targetPoint" />
          </mxGeometry>
        </mxCell>
        <mxCell id="Qr_dwRY2gjO2oXWCvikJ-46" value="" style="group" parent="1" vertex="1" connectable="0">
          <mxGeometry x="335" y="950" width="130" height="50" as="geometry" />
        </mxCell>
        <mxCell id="Qr_dwRY2gjO2oXWCvikJ-33" value="" style="group;fillColor=#E6E6E6;container=0;" parent="Qr_dwRY2gjO2oXWCvikJ-46" vertex="1" connectable="0">
          <mxGeometry width="129.99999999999997" height="50" as="geometry" />
        </mxCell>
        <mxCell id="Qr_dwRY2gjO2oXWCvikJ-34" value="&lt;div&gt;&lt;font face=&quot;Helvetica&quot;&gt;User workflows&lt;br&gt;&lt;/font&gt;&lt;/div&gt;" style="rounded=0;whiteSpace=wrap;html=1;fillColor=#E6E6E6;" parent="Qr_dwRY2gjO2oXWCvikJ-46" vertex="1">
          <mxGeometry width="129.99999999999997" height="50" as="geometry" />
        </mxCell>
        <mxCell id="Qr_dwRY2gjO2oXWCvikJ-47" value="" style="endArrow=classic;html=1;rounded=0;exitX=0.5;exitY=0;exitDx=0;exitDy=0;entryX=0.5;entryY=1;entryDx=0;entryDy=0;" parent="1" source="A-6-zeI3Z-jVhBnKLyq9-14" target="A-6-zeI3Z-jVhBnKLyq9-25" edge="1">
          <mxGeometry relative="1" as="geometry">
            <mxPoint x="490" y="649" as="sourcePoint" />
            <mxPoint x="590" y="649" as="targetPoint" />
          </mxGeometry>
        </mxCell>
        <mxCell id="Qr_dwRY2gjO2oXWCvikJ-48" value="PUT" style="edgeLabel;resizable=0;html=1;align=center;verticalAlign=middle;" parent="Qr_dwRY2gjO2oXWCvikJ-47" connectable="0" vertex="1">
          <mxGeometry relative="1" as="geometry" />
        </mxCell>
        <mxCell id="Qr_dwRY2gjO2oXWCvikJ-49" value="" style="endArrow=classic;html=1;rounded=0;exitX=0.5;exitY=0;exitDx=0;exitDy=0;entryX=0.5;entryY=1;entryDx=0;entryDy=0;" parent="1" source="Qr_dwRY2gjO2oXWCvikJ-25" target="A-6-zeI3Z-jVhBnKLyq9-1" edge="1">
          <mxGeometry relative="1" as="geometry">
            <mxPoint x="625" y="705" as="sourcePoint" />
            <mxPoint x="500" y="705" as="targetPoint" />
          </mxGeometry>
        </mxCell>
        <mxCell id="Qr_dwRY2gjO2oXWCvikJ-50" value="workflow status" style="edgeLabel;resizable=0;html=1;align=center;verticalAlign=middle;" parent="Qr_dwRY2gjO2oXWCvikJ-49" connectable="0" vertex="1">
          <mxGeometry relative="1" as="geometry" />
        </mxCell>
        <mxCell id="Qr_dwRY2gjO2oXWCvikJ-71" value="" style="group" parent="1" vertex="1" connectable="0">
          <mxGeometry x="250" y="280" width="230" height="240" as="geometry" />
        </mxCell>
        <mxCell id="Qr_dwRY2gjO2oXWCvikJ-57" value="&lt;div&gt;&lt;br&gt;&lt;/div&gt;&lt;div&gt;&lt;br&gt;&lt;/div&gt;&lt;div&gt;&lt;br&gt;&lt;/div&gt;&lt;div&gt;&lt;br&gt;&lt;/div&gt;&lt;div&gt;&lt;br&gt;&lt;/div&gt;&lt;div&gt;&lt;br&gt;&lt;/div&gt;&lt;div&gt;&lt;br&gt;&lt;/div&gt;&lt;div&gt;&lt;br&gt;&lt;/div&gt;&lt;div&gt;&lt;br&gt;&lt;/div&gt;&lt;div&gt;&lt;br&gt;&lt;/div&gt;&lt;div&gt;&lt;br&gt;&lt;/div&gt;" style="rounded=0;whiteSpace=wrap;html=1;fillColor=#E6E6E6;container=0;" parent="Qr_dwRY2gjO2oXWCvikJ-71" vertex="1">
          <mxGeometry y="10" width="230" height="230" as="geometry" />
        </mxCell>
        <mxCell id="Qr_dwRY2gjO2oXWCvikJ-58" value="&lt;div&gt;&lt;font face=&quot;Courier New&quot;&gt;strimzi-cluster-operator&lt;/font&gt;&lt;br&gt;&lt;/div&gt;&lt;font face=&quot;Courier New&quot;&gt;Deployment&lt;/font&gt;" style="rounded=0;whiteSpace=wrap;html=1;container=0;" parent="Qr_dwRY2gjO2oXWCvikJ-71" vertex="1">
          <mxGeometry x="10" y="20" width="210" height="40" as="geometry" />
        </mxCell>
        <mxCell id="Qr_dwRY2gjO2oXWCvikJ-60" value="&lt;font style=&quot;font-size: 14px;&quot;&gt;Kafka&lt;/font&gt;" style="text;html=1;strokeColor=none;fillColor=none;align=center;verticalAlign=middle;whiteSpace=wrap;rounded=0;container=0;" parent="Qr_dwRY2gjO2oXWCvikJ-71" vertex="1">
          <mxGeometry x="160" y="210.3703703703704" width="70" height="29.629629629629633" as="geometry" />
        </mxCell>
        <mxCell id="Qr_dwRY2gjO2oXWCvikJ-63" value="&lt;div&gt;&lt;font face=&quot;Courier New&quot;&gt;dyff-entity-operator&lt;/font&gt;&lt;br&gt;&lt;/div&gt;&lt;font face=&quot;Courier New&quot;&gt;Deployment&lt;/font&gt;" style="rounded=0;whiteSpace=wrap;html=1;container=0;" parent="Qr_dwRY2gjO2oXWCvikJ-71" vertex="1">
          <mxGeometry x="10" y="70" width="210" height="40" as="geometry" />
        </mxCell>
        <mxCell id="Qr_dwRY2gjO2oXWCvikJ-64" value="&lt;div&gt;&lt;font face=&quot;Courier New&quot;&gt;dyff-zookeeper&lt;/font&gt;&lt;br&gt;&lt;/div&gt;&lt;font face=&quot;Courier New&quot;&gt;StatefulSet&lt;/font&gt;" style="rounded=0;whiteSpace=wrap;html=1;container=0;" parent="Qr_dwRY2gjO2oXWCvikJ-71" vertex="1">
          <mxGeometry x="10" y="120" width="210" height="40" as="geometry" />
        </mxCell>
        <mxCell id="Qr_dwRY2gjO2oXWCvikJ-65" value="&lt;div&gt;&lt;font face=&quot;Courier New&quot;&gt;dyff-kafka&lt;/font&gt;&lt;/div&gt;&lt;div&gt;&lt;font face=&quot;Courier New&quot;&gt;StatefulSet&lt;br&gt;&lt;/font&gt;&lt;/div&gt;" style="rounded=0;whiteSpace=wrap;html=1;container=0;" parent="Qr_dwRY2gjO2oXWCvikJ-71" vertex="1">
          <mxGeometry x="10" y="170.37" width="210" height="40" as="geometry" />
        </mxCell>
        <mxCell id="Qr_dwRY2gjO2oXWCvikJ-70" value="" style="shape=image;verticalLabelPosition=bottom;labelBackgroundColor=default;verticalAlign=top;aspect=fixed;imageAspect=0;image=data:image/png,iVBORw0KGgoAAAANSUhEUgAAAa0AAAGtCAYAAAClVis3AAAAAXNSR0IArs4c6QAAAGhlWElmTU0AKgAAAAgABAEGAAMAAAABAAIAAAESAAMAAAABAAEAAAEoAAMAAAABAAIAAIdpAAQAAAABAAAAPgAAAAAAA6ABAAMAAAABAAEAAKACAAQAAAABAAABraADAAQAAAABAAABrQAAAADrM55VAAAC5GlUWHRYTUw6Y29tLmFkb2JlLnhtcAAAAAAAPHg6eG1wbWV0YSB4bWxuczp4PSJhZG9iZTpuczptZXRhLyIgeDp4bXB0az0iWE1QIENvcmUgNi4wLjAiPgogICA8cmRmOlJERiB4bWxuczpyZGY9Imh0dHA6Ly93d3cudzMub3JnLzE5OTkvMDIvMjItcmRmLXN5bnRheC1ucyMiPgogICAgICA8cmRmOkRlc2NyaXB0aW9uIHJkZjphYm91dD0iIgogICAgICAgICAgICB4bWxuczp0aWZmPSJodHRwOi8vbnMuYWRvYmUuY29tL3RpZmYvMS4wLyIKICAgICAgICAgICAgeG1sbnM6ZXhpZj0iaHR0cDovL25zLmFkb2JlLmNvbS9leGlmLzEuMC8iPgogICAgICAgICA8dGlmZjpDb21wcmVzc2lvbj4xPC90aWZmOkNvbXByZXNzaW9uPgogICAgICAgICA8dGlmZjpSZXNvbHV0aW9uVW5pdD4yPC90aWZmOlJlc29sdXRpb25Vbml0PgogICAgICAgICA8dGlmZjpPcmllbnRhdGlvbj4xPC90aWZmOk9yaWVudGF0aW9uPgogICAgICAgICA8dGlmZjpQaG90b21ldHJpY0ludGVycHJldGF0aW9uPjI8L3RpZmY6UGhvdG9tZXRyaWNJbnRlcnByZXRhdGlvbj4KICAgICAgICAgPGV4aWY6UGl4ZWxYRGltZW5zaW9uPjQyOTwvZXhpZjpQaXhlbFhEaW1lbnNpb24+CiAgICAgICAgIDxleGlmOkNvbG9yU3BhY2U+MTwvZXhpZjpDb2xvclNwYWNlPgogICAgICAgICA8ZXhpZjpQaXhlbFlEaW1lbnNpb24+NDI5PC9leGlmOlBpeGVsWURpbWVuc2lvbj4KICAgICAgPC9yZGY6RGVzY3JpcHRpb24+CiAgIDwvcmRmOlJERj4KPC94OnhtcG1ldGE+CncA/6UAADKkSURBVHgB7Z1BeuNGsq1dvnd+eVdg9ArMnr1ZwbM3a/UKGl6B1SswewVyD9+I1aM3VPXwjSivQPIKSM/uTOoV+J3jEtssWpRIIIGMTPzxfWGSIDLixJ9ABgCp5C++wCAAAQhAAAIQgAAEIAABCEAAAhCAAAQgAAEIQAACEIAABCAAAQhAAAIQgAAEIAABCEAAAhCAAAQgAAEIQAACIQm8C6kKURD4jcBCb5fPHw/f/7bHp3cPenl63nj4/ng/PkMAAgUToGkVPHmVSd83pFZ1fS1v5Ev5EHPz2sl/kt/JaWaCgEEAAhCAQD8CrYbdyO/lv0zkzuWcrRyDAAQgAAEIvErgSt+u5Y/yqRrVqTzWYC3WhEEAAhCAAAR+JdDovyv5Vn6qgeTebm3W2MgxCEAAAhCYIYFGNa/luRvSpfmtuZVjEIAABCAwAwKNatzIL20W0fZ3Da0cgwAEIACBCgk0qmktj9Z8hupxTa4NgwAEIACBSgisVEeEX64Y2qBOjXdtrhGDAAQgAIGCCSyl/V5+arGvbftWtbZyDAIQgAAECiOwkt7amtK59bh2DAIQgAAECiCwkMaN/NwFvtb9fIfZyDEIQAACEAhKwI8Da/7Z1aUN1izaoHOFLAhAAAKzJtCp+ksX9bnsbzYYBCAAAQgEIXAjHXNpQH3rXAeZK2RAAAIQmDUBL8Z9F/K5jaNxzfpUoXgIQCA3ARrW5Q2bxpX7qCU/BCAwSwI0rMsb1i86Uuw0rlmeMhQNAQjkIkDD6t+waFy5jlryQgACsyTQqer9wsvrMBbXszyCKBoCEIDARASulIdGlZZBN9HckQYCEIDArAg0qpZ/OJy2YfkCwEz9j7IxCEAAAhBISOBesbjLGoeB2S4SzhWhIAABCMyawI2qp2GNy2A96yOM4iEAAQgkItAqDg1rGgb+mSEGAQj0JPCu5ziG1UPAj6z86Kqpp6TQlTxJ3R/kfsUgAIELCXx54f7sXh+B71VSU19ZYSvyRYIfxWIQgAAEIHAhgaX257FgHgbthXPF7hCAAARmT2AjAjStPAzMHoMABCAAgTMJXGk/GlZeBt2Zc8VuEIDAMwF+EWO+h8JWpTcFlO9fWHiQ/yjfPbtevrjzf2Ttr//9VEuj9+/lfuy5kEe3nQT+IbpI9EEAAhDITaCTgMh3WY/St5ZfyfuaxzqGY0WutZM+DAIQgAAEXiGw0XcRF/KtdHXylHdJjuWYjh21ZknDIAABCEDgJQKtNkZbvH03tJKPbddKEPHOqx27cOJDAAIQKJXAWsIjNa2N9DQTwvSd1608EgPrwSAAAQhA4IiAF+xIi/XqSN+UH33XFYlFM2Xx5IIABCBQAoFIC3UXANiVNER5XOi5wSAAAQhA4IDAvd7nvrtwk3CziGJLCYnQuLZRgKADAhCAQAQCjUTkbljO7yYRzaI0rohsos0VemZOgD+YO58D4CpAqd9Kw0MAHccSrOmvxxszfG4z5CQlBCAAgZAENlKV805rHZLK56JuMjPy41sMAhCAAAREIGfD2ir/opBZsNacrErhVMh0IhMCECiRQCvRORdi5y/FWgnNyeqqFFDohEAOAvxMKwf16XO206f8d8Y7vbOXYncSas9ly1yJyQsBCEAgCoFbCcl199BGgXCBDjeOXLw2F+hkVwhAAAJVEtiqqhyLcMm/WODmkYPZY5VHIEVBAAIQuIBAjsXXObsLNEbb1dpzceOXMaIdDeiBAAQmI9AqE4vv5bjdOHJx85xhEIDACwT4RYwXoFS2KddV+504PhXM0to/ZtLfZMpLWgiEJ0DTCj9FgwUuB0foF+DHfsNCjcpVQxOKAmIgEIgATSvQZFQm5a6Ceh4qqIESIFAVAZpWVdP5YjFfvbh1/I01LPi5ang//vSQAQJlEqBplTlvl6huLtk54b5PCWPlClVDDbnYkRcCoxCgaY2CdfZBdxURuKuoFkqBQPEEaFrFT2HIAnYhVSEKAhAongBNq/gppAAIQAAC8yFA05rPXFMpBCAAgeIJ0LSKn8KQBSxDquonquk3jFEQgMAYBGhaY1Al5qIiBE1FtVAKBIonQNMqfgrfLODhzT3G2aGGu61mHDRvRn16cw92gMBMCdC06p/4f2UqsYamlauGnzLNGWkhEJ4ATSv8FBUr8Otilf8mnL9M8RsL3kEgBAGaVohpGFXE3ajRTwe/Ov1VMd+0mZQ+ZMpLWgiEJ0DTCj9FgwU+DY7QL0CjYbker/VT/PmonPpzzdnnBPgEAQhAIBOBXP8zw5tM9aZIu1KQXNxS6CcGBCAAgWIJ3Et5jgX4UXkXhVLbZmLmvBgEIHCCAI8HT4CpbPNDpnrcsLpMuYekteZmSIABY3PN1QDJDIUABCCQlsC1wuW403LOEu+2ct1lmZfnCoMABCAwawJLVZ+raTlvST/bWmVm5bnCIAABCMyegO94cjauEhbj3M3dc4RBAAIQgIAIrOU5m9ZW+ReBZ8La7jMzug3MB2kQgAAEJiVwpWw5m5ZzR16U1wH4dNKAQQACEICACPhOInfTcn43h2gWoWGZTeQ70Whzhh4IQGAGBHyn48Uxt7tJRDFryc3D+SPfhUaZK3RAAAIzIxDhEeG+QbhZ5L6zsIa9ntyv3cyORcqFAAQgcBaBrfbKvUDv899Ly/Is1Wl3ahTOufc6cr8+pi2PaBCol8B/1lsalZ0g8A9t//7Ed1NvdsPayP8m/2Gi5NfK4/oXE+U7J82Hc3aa+T6er6V8/7rH8ZXeNPsPev3x4L3f3j1/3r8+f+QFAhAohUAjob8EdN/5tPKxrFVgN8iItTfShf1GoNHbTn4j95z5TjTFvDmO463kV3I3QAwCECiAwFoaUywCY8Rw8+oSMnQsL1RjaE0Rc52w1pJDuYmYxVaeguu5MXy83ciXcgwCEAhKoJGuc0/qXPv5qngt7+SN/FxrtGMn91jHyKX/3LyNNM7V9o0qyjxZx42cBhb4iHwXWBvSxiWwbwjjZkkX/UmhHuQ7+c/yQ/tKHxq5F5uFvBT7IKHfliI2kc5GcTr5X+SNPKrtJOzv8g9yH3sYBCCQmUCj/OfeDbDfOKw8B3OxRoWu5aUdS/u7L+vHIACBzARWyl/aIlKLXj+GmoM1KrLEZvXSceY6SrqTn8PxRY0zI+ATcCt/6QRl23hcfPVe++Ln+tyYazuOPHcree3zpxIxCMQkcCVZtS0s0evpYh4KyVRdK5IX9+jzMETfVvX53MEgAIEMBG6Vc8gJzNjz+W0yzO9UKRslcn1zOh587nDXJQgYBKYk4JOu9ivjCAupGTdTTuyEueZwd3XqGPK8thOyJhUEICACftRx6qRkexo2Zlyb+YLHdxscI59+hlfb/FIPBEITuJE6Fp9xGJhtbbZUQfdyjpnfGGzEw40cgwAEJiLgk45FKC0DL+y1WauCHuUcK79nsBUXN3QMAhCYgICvErl6/v1C1Hdx9sJe25V3p5r68pjLOM87jUsQMAhMQcAnG1fRwxfmGheuTsfGXBrP0Do9/60cgwAEJiBA4xq+ONd2pd3puBu6kM9x/NUE5yspIAABEaBx9V+ku8qOINczx4aTouYa77grO7wppyYCnYpJceLOKYaZ1WSdipnT/I1RK42rpjOCWsIT4I7rvEXbC1MXfjYvE9hq9zEW8TnG9PGxuAw/e0MAAn0J0LheX7xrvJJmzl+f8z6N914nII2r7yrEOAhcSKDR/j7p+pysNY8xEy/wNZkXVuZ6nGN9XdOBQi0QiE7Ai5lPupqb0CW13YpFjVfOzPG4x3in4waDAAQmJNAp16P8kgW+tn2vJ+Q9Zapu5vM6xXHqc2c55aSSCwIQ+HTSzfERkmuudcFpVNvcL0amaFrO4eMIgwAEMhBYKedcFjrXWrNtVNxUizZ5Pv1fkGs+nqgNAmEJNFJ2K691IfJi7hprtisVV+v8Ra3LF3tNzQcVtUEgOoFWAr3AR10kLtXlRziuqXZbqMCt/FI+7D+cmS/2MAhAIDOBVvk38lIXta20d/K52EqFljpXNehu53KgUScEohNoJbCkx4Yb6bXmOZnvsvyYqobFv9QafNxhEIBAIAKNtKzkW3m0hcWabuSNfI62VtHR5uQlPZ4na72Wt3I325dsqY2tfCXfyF+KFXFbK60YBCAQkIAXFTeJrTzX4uHc1nAln7N54c81B+fk9R2g58nHzBDzPN/Kz8mZa5/NkAIZCwEITEPAi9G13AuKF6ixFgzHdg7nck7sE4GVXsZiPiTuVro6+UKe0hoFW8uHaBtzbCttGAQgUAiBlXSOtSA4NvZ7AmNeKPSdy5Vkpm5Wx5U32uCLmL4axxpnTRgEIFAIgZV0jrUYODb2OYFOH8fi3SfuvfRMfRd8pZzRGncjTdgJAl+e2M5mCECgfgLfBSrxg7T8Uf4wsaaPmfK+VmakeXlNZ5bvaFpZsJMUAtkJNFIw9V3NqaK/1Rf2XLZT4m/kH+QRzHd/2AkCNK0TYNgMgcoJRFkY3aw+BGD9JA1RtDTSEuWCIsDUfC6BpvU5Dz5BYC4E/hKg0L9Kw4cAOg4luHF9PNyQ6X2E+clU+utpaVqv8+FbCNRIoFFRua/kP0jDD/KI5sb1kFnYVeb8YdPTtMJODcIgMBqB3AuiG4LvsqLak4S5cfk1lzVKvMyVPHJemlbk2UEbBMYh8H6csGdHzd0QzhHqxvq3c3YccZ92xNjFhqZpFTt1CIdAbwJt75HDB/6gEG4IJVhurbkvLkLOEU0r5LQgCgKjEVgq8mK06K8HftLXue9eXlf4+29zPsb0XGFHBGhaR0D4CIHKCeRcCP8utm5cJdmdxNpzWKOkduyAAE3rAAZvITADAk3GGj9kzD0k9T+GDB44thk4vrrhNK3qppSCIPAqgVw/J/koVbtXlcX98oOk5bpDbONiyaOMppWHO1khkItAkynxPzPlTZXWTTeHfZUjaeScNK3Is4M2CKQn0KQPeVbEXIv+WeLO2ClX023O0DarXWhas5puip05gSZT/Q/Km+vxWqqS71IFujDO4sL9q9+dplX9FFMgBP5NoPn3u2nf3E2bbpRsbrpuvlPbcuqE0fPRtKLPEPogUD6Bn8sv4dcKdpXUUXQZNK2ipw/xECiCQI47lDHA/DRGUGJeRoCmdRkv9oZAyQTaksWjHQImQNPiOIAABCAQm8Aitrxp1dG0puVNNghAAAKXEqBpHRCjaR3A4C0EIACBgAR2ATVlk0TTyoaexBCYnMBu8owkhEBiAjStxEAJB4HABHaZtDWZ8qZO+3XqgMS7nABN63JmjIAABC4j0Fy2e9i9a6kjLOBzhNG0zqHEPhCAwBACuf6y/BDNL43N8dcpdi8JmfM2mtacZz9W7f4NqTH/orVjz/23sO4yTXmbKW/KtLlq2KUsglgQgEB/Aq2GXstv5Vv5LxO5cznnSt7K52ZTcT7Oc1U46BvpP65pis8+VjEIQCADgUY5903qUe+nOOHPzeGFwdoaee22UYHnckm537pwsNtM3FaFc0M+BIoi0Eitm8G9POUCOGYsa625gbl5jMnvVGxfqCzkJVor0afqGnv7VYnA0AyBkgh4YerkG/nYJ/TY8d3AXEupi62k/86utWVsbqfid79TU8aGdUZmyzIQoRIC5RFoJPlG7ivqU4tWqdtdkxeuRl66tSog1zxsC4TXZOTlecIgAIHEBBrF84KeayGcOq9rbeUl29TMDvP5Tq8ku5XYQ/1Tvt+UBAqtEIhOoJHAnCf0lIvHS7m8oLTyEs3aX6ppim2+a20KgdZK5xRMTuVYFcIJmRAITaCRurX81Ik2t+1mYSYl2Upic86TL3aim3+OuZXn5NRGh4Q+CEQnsJJAXynnPJGj5jYbL3QlmH+4n5tj9MeEuZ8i+DzDIACBngRajdvKcy900fObkVmVYBHmsw0KaiVduY+1dVA2yIJAaAK+c7iR5z6BS8vvq/Sod12R5tR3E0t5JOskJsLxZh0YBCBwAYFW+27lEU7gEjV4QTbDSHYtMdYViWekxtUFYWMmUS96JA2DQDwCK0mKtLCVrOUmwPS20rANPKdepDt5TlspeZTjbJ0TBLkhUBIBX91t5FFO3lp03ItpjivnRnlvC5rPHA3e8xKNUStNGAQg8AaBpb7fymtpFNHqeBRbM57CvBCv5NEYnKPnXrpb+RTWKYnn5RxdU+2znaJwckCgdAKdCoh28k61SEydx6zHtE7Ba5jLW9XRyMewVkHv5VPP/Tn5OunCIACBVwh0+u6ck4l90nG6fmU++n7VauBGXts8uaYr+VDz3Wcnj9qsPG++2MAgAIFXCNzou9oWuVLqWb8yL5d81Whnxyql7r46vaDfyjv5Un6Oeb9rucf1zTvluJV0Ym8QePfG93xdL4G1SuvqLa+Iyj5I5bcDlK409ju57yLmaA8q+umFws1j+cL2yJtcxx/kL9UTWTfaIDAJATesKa8gyXWat+fiUrvSgK0crvUwuL70IGB/CMyFgBdJFrtYDDwn59hSO23kzF9dDLbnTD77QGCOBLw4suDFZOC5OWULfXEjZ+7qZNCemni2Q2DOBFYqnkUvNgM3pmPzY6NHOXNXJ4Pb4wnnMwQg8OkXLlj0ylj0uucDttXrVs681cvAFyO+i8YuIMBvD14Aq9Bd/XOQ+0K1z1X2RxV+NdfiZ1T3n1Wr5xq7gABN6wJYBe66kGZfrfsVgwAE4hD4IClD/rlDnEomVkLTmhj4xOk2ytdOnJN0EIDA6wQe9PU38qfXd+Pblwh8+dJGtlVBYKUq2ioqoQgI1EPAjcp3WDSsnnPKnVZPcMGHtdLnuywMAhCIRcB3WHexJJWlhjutsubrHLUL7bQ+Z0f2gQAEJiXgO6y7STNWmIymVd+kfq+SmvrKoqJMBD4o73/L/Yr1J/BXDf3QfzgjIVAngVZl/YLDIMEx4MfLS/mh+Z9OcHxdzmB9CJH3wwjwM61h/KKN3kpQE01UAj13zzF+fCPW++fv2zf24+vTBHb6yncFH1/YxY+eb+TdC9+x6WUCP2izeWIQgMARgZU+13AV7L8ScCu/li/lfc1jHcOxHLMGNmPWYEYr+UL+lq21w5haaondvQWS7yEwVwKNCi95YbZ2L4RX8rHMsZ2jZE5jLebm0sgvsRvtPJaeGuJ2l8BkXwjMjYAXnRJP9K10+27onKv7VHPqXM7p3CUyS6l5IwatvK91GphSTw2xfFG07AuUcRCYA4FGRZZ2sm+luZPntk4CrKU0fkP1emF17SnMCzR3r5+OoY1Y+KIIgwAEXiGw1ndDF7GpxntxW8mjndjWNJeFdwz+ns9b+VTHUcQ85opBAAJvEGj0fcQT+CVNG2m13qjWSJg1vqS9hm1uKq5xTLtW8Lk0//0xsVXN7ZhQiQ2BmgisVcz+5In8uioIuhfeyCwv1bZVPe2E/Bvl2sgv1Vni/ivVGe2pgSRhEIhJoJGs6Ce6r7pbeWm2lODS7xis3w04l10p8VYe/Rjto2+juho5BgEIXEBgpX37nHBTjbmXPi/+pVoj4a5hKl4p89xI90Iewdw43UBT1pcr1lZ1uBljEIBADwKRFwIv9lEWzR5o/z3ENbiWXIvkpXk30trIo5k5ruRe9C+tKcL+1n0tr+GYVhkYBKYn0CllhJP5JQ21NKz9rJbQuLyoXu0FB3/tpK+UC4FbaW3lGAQgMJCAT6aXGkbubbU1rP00RW5cblgl2lKib+SP8tzH7WF+87yWN3IMAhBIQKBRjMOTLMp7Lz5eiGo1N65oC+x+7pvCoV9JvxuYG8a+pilf75V3Ja/5+FV5GATyELhW2ilP6HNztXlwTJrVi9q5PKbcz8dELdaokE6+lruZjMFxo7huklfyhRwriMC7grQi9RMBn8hePCPZ3yRmFUnQiFrcILzgRbIHifljJEGJtfh4X8jb57hfP39+/njy5Unf/PT87Z1ed8+uFwwCEJiCQKMkY1x5DonpJjo385X6EGZjjG3mNgnUO08CX86z7GKrbgMq/zagprEluWZfxUeyq0hi0AKBsQjQtMYiO07cP40TtndUPxZ86D263IE7Sf97MPnvg+lBDgQgAIFQv732qPlYzHxOtqp/jEd9fWPOfDoofw4EuNMqZ5aXkhqpSfhO46kcfKMo9Z1mJGsjiUELBCAwbwLXKr/vFXjqcdxl/XYsbgPNi48RDAJVE+BOq5zp/TqQVO6yfpuMSD/bev+bLN5BAAIQyEvgXulT3zH1jdfkRREqux/Z9uWYetw2FBnEQAACsyaQeoHrG+921rPwcvFrbe7LM/U4N1EMAtUS4PFgGVPbBpL5z0BaokiJxGQZBQo6IDAGAZrWGFTTx2zSh+wd8WPvkfUOjMSkqRczlUHgiy9oWmUcBU0QmXfS8RRESzQZURpXEw0MeiCQkgBNKyXN8WJ9NV7oiyL/eNHe89o5CptIv2U6ryOAaichQNOaBPPgJM3gCGkC3KUJU2WUhyBVLYLoQAYERiFA0xoFa7VBoyzMEQHfBRHVBNGBDAiMQuDdKFEJmpqAfy06tz1JwH/nFhE8/1b6mgAaOa8DTAISxiHAndY4XGuMyl3W27O6e3sX9oAABIYQoGkNocdYCHxOYPf5Rz5BAAKpCdC0UhOtNx53Wm/P7c9v7zLJHotJspAEAhkI0LQyQC805b8K1T1H2cs5Fk3N8yBA04o/z018iSiEAAQgMA0BmtY0nMkCAQhAAAIJCNC0EkAcOcRu5PiEhwAEIFAMAZpWMVOVXeh/ZVeAgHMJ3J27I/tBoDQCNK3SZiyfXn64/zb7KH8j8m2l7AGBQgnQtAqdOGSHJNCEVIUoCFREgD/3UsZkRvgzTibF8fL68cKfcXqdD99CYDAB7rQGI5wkwN0kWd5O0ry9y6z3iMCHfwQ+60Ow/uJpWvXPccoK+bnWaZrt6a8m/eZp0mwkg8DEBGhaEwPvmW7Xc1zqYTSt00Tb019N+g1Na1LcJJuaAE1rauL98kX5m3Z/6id/FqPeB6nypyA6kAGBUQjQtEbBmjzoQ/KI/QL6TmvRb2jVo8ykDVLhLogOZEBgFAI0rVGwJg/6lDxi/4BX/YdWO7INVNkukBakQAACMybgX3uP4LcznoNTpZtJhLmxBgwCEIBACAL3UhFlYWxCEIkhwo8Go8zLNgYSVEBgPAI8HhyPberID6kDDojXDRhb29DrQAVFOkYCYUFKTQRoWuXMZqTfCvtO2HyHgX3xxV8CQfgxkBakQGAUAjStUbCOEvRulKj9grphRbrD6FfF8FGdQjTDwySLcJcsEoEgAAEIJCDwqBhRfn5iLXO+23Lt/hlSpPmQHAwCdRPgTqus+f0YSK4X7e8D6ZlayrUSNlMnfSXf3Svf8RUEIACBLAQ6ZY1yZb/XscxCIm/SJuA8uIliEIAABEIR8N3NvllEefWv4s/NNio4Cv+9jmZuk0C98yTwn/Msu9iqn6T8Qb4MVIG1rJ49kKzRpLjWdrTo/QL7mNj1Gxp+1EIKfYw1z/61Xr3N5u37979ueP7PTq92207+8/Or39/JMQhAYEIC18q1v7qO9NpOyCBXKi+SkZjvtfiYqMUaFeJ61vKtfF9jylc/HXD8Tt7IMQhAYEQCC8VOeQKniuXfJvSiXqs1Ksw1puKVMo61lWxXEr+Wb+UpuZwby3lv5DUfvyoPg0A+ArdKfe4JOeV+99LlplqbuSbXNiXLc3NtC4XtBrGWPwbjap438kaOQQACiQh0inPuojb1frU1rsgNaz+3XmhbeXQzy05uvXvtkV830tnKMQhAIAGByCd+LY2rhIZ1uOh7kW0SHFupQ5jjSh7truqQ3Wvvt9LeyTEIQGAAgZXGvnai5f7OjauRl2qlNazD+b4RdOvPbaU3q0Omfr+Vt7mhkh8CpRLwgnB8UkX77CvrtkDAS2ku9a5gfwxYf5eRvXOXznDP8vh1o9paOQYBCFxIYK39j0+oiJ9XF9aVc/frQpieO8/3qqedEKgb/kZ+rr6S97tRnb54xCAAgTMJNNqvlJPeC5n1RrVGwqyxFJ6X6rxVba5xTFsp+KW6St9/q5pbOQYBCJxJYK39SjrxV9Ib6erUWqyp1kdZx8eGa03Nv1HMjfw415w++64LgwAEziDQaJ/SFoetNHfy3NZJgLWUxm+oXjdo157CrhRkLg3/Le73YtGkgEoMCNROYK0C3zqhIn6/le6VPPWVv0KetP2dlXNHZDKlJi+y7UlSb39xrV2m1FtCLjfw9m107AGBeRPwQlz61e5aNVyNOI2O7RwlLHxTazSXRn6JwfL1Y6m7BCb7QmCOBFYqeurFbqx8t6rFV/GtvK+1GugYjjWWzpri+qJnJV/IXzN/D9Pzjikff1hiAu8SxyNcXgL3Sr/MK2GU7DtFtT/I/yV/yb7SxubAX9qHbW8T2GmXv8k/yI/NDWsjr/EYO6411ecPCvRtqmDEgUBtBFoVVNPVP7Xkm083Jx9Pe3PD8kURc3I5g/UeIq/DCfzH8BBECERgJy1eXP5XIE1IKZNAI9md3K8/yf+vnONKEHqY70x9Xv6/HmMZckTg3dFnPpZPYH9F3JRfChVAoCoCfkz4oaqKMhRD08oAfYKUvrLzoxwMAhCIReDPkvMxlqSy1PB4sKz5Olft/2hHX5C05w5gPwhAYBIC/1tZ/JjQ5yjWgwB3Wj2gFTTk+IfpBUlHKgSqJfCgyr6RP1Vb4YiFfTlibELnJ+BHEbv8MlAAAQgcEPDj+5uDz7y9gABN6wJYBe7qKzk3Lq7oypq8h7LkorYHgU5jrnqMm/0Qmlb9h4AXwL/WX2Y1FX6rSv4o9+OjnRyrl4D//dai3vKoDALDCHQazj8Mjc1g9cIUX2vbI3NX7bF7+8KcswkCEHgm4Cs7GldMBp6bU+arceYu5rylOJ/aUxPPdghAgMUvxSKTOoYb0jm21E4beer8xMvLdHvO5LMPBOZMYK3iWahiMPBcXGpXGuCFjjmsh4EfA2NnEODfaZ0BqdJdvFh2ldZWSlkfJNS/eNHXVhr4ndyPD+dodwdFP+n9noNflwfflfDW+v8g9ysGAQicIOB/K8LVeh4GvmhIYY2COFbt87h9rrPTayM/x9y4Orl/2eFRHp3RShoxCEDgDQKdvo9+Mtemb/XGnPT5utWgjbw2VmvV5NpSWKcgkRm5sWIQgMAZBDrtU8KVaA0LslmPaZ2Cb+Wls1qrhkY+hrUKupFHZNRJFwYBCJxBwI9StvKIJ3INmnxRYMZT2EJJVvISud1L91ScOuWKdrHmcxCDAATOJODFbiMvcbGLrNkLsdlObY0S3sojsznUtpLWqS3iMd9ODYF8ECidwEoFHC4mvO/P4ybAwdBKgxtn1Hl8lDZrzGkrJY/CZ50TBLkhUCqBVsK38igncmk6IizEx8depw3WFYml9Uz1OFCpXrVO30ZgYyYYBCDQg4AfndzII5zIJWm4FbMcjwPPmeJIcxqpYe3ZdXoT4Vi72gviFQIQuJxAqyFbeYSTObIGMzKrEswNIzfLZVBQ1wHYrIOyQRYEiiKwktoIi13uxfY4v5mYje9iSjA3i+Mapv7sxhDZ1hI3NZPDfD6mMAhAIAEBL8y5T+jDkzv3e7NoEnCdMsRKyXJyu52y2J65fJxvM3Nqe2pnGAQg8AKBRtu8YOdc/HLmdu1mUKJtJDoXO99BuCGUYK1E5uLkvCs5BgEIJCbQKN5anvPknjK3a3XNJduUvI5zRX8seDyvvis8rmGqz5tjMXyGAATSEWgUaiX3lfRUJ/VUeVyTa2vkpVurAqbidpxnWyC8JiMvH3cYBCAwAYFOOXJeoR4vln0/uwbXUpP5Tqcvj6HjukJBrjMyWxbKDNkQKJKAf3bhRbKkBrZ51tzotUbLtQD7rsHHQ4nWSvTQht13/FWJwNAMgRoIeMHq5F40t/K+J3HqcdaylnfyUhdVST/bNtozNcNz4plxybaV+HPqTL3PqmRoaIdATQQaFdPJb+QbeeqT/VQ853LOTt7I52anuIy9vfQ7Bh8zYzN6Kf7t3A5Q6oVASQRWEvvSiZtim2Nj4/F9a45KZ9+qgLdqHOP7TengUuv/MnVA4kEAAmEJtJmU3WXKmzJtrhqalEXUEIumVcMsUgMEYhP4Mba8s9Xdnb1nuh2bdKHqiETTqmMeqQICkQnsIou7QFstdVxQcrxdaVrx5gRFEBiLQDNW4Dfi7t74vpSvfy5FaM06aVo1zy61QeBzAs3nH/kEgfII0LTKmzMUQwACEJgtAZrWbKeewiEAAQiUR4CmVd6coRgCEIDAbAnQtGY79RQ+QwJ3M6yZkisjQNOqbEIpBwIBCSwDauoj6es+gxiTlgBNKy1PokEAAr8n8NXvNxW5pSlSdWWiaVqVTSjlQOAVArtXvhvzq3bM4BPGznHH+DBhfUWkomkVMU2IhEASArskUS4P4sV+cfmwUCOuMql5ypQ3bFqaVtipQRgERiGwGyXq20FzLfpvKztvj/fn7ZZ8r4fkEQsPSNMqfAKRD4ELCewu3D/V7n9KFShTnC5T3n9lyhs2LU0r7NQgDAKjEMj1F9d9p9WMUtH4Qa19MX6aFzPcvbh1xhtpWjOefEqfJYFdxqq/y5h7SOqcunk8eDRzNK0jIHyEQOUE7jLW1yl3rjuWvmW3GmjPYTslfcqROHJOmlbk2UEbBNIT2ClkroXQDesmfUmjRvx+1OivB394/et5fkvTmue8U/W8CdxlLL9T7jZj/ktSX2fWmuvnj5cwmnxfmtbkyEkIgewE/plZwVr5fdcV2RqJy3mXZTYf/R/scwI0rc958AkCcyBwl7nIRvkjPyZ0Q72V52ysO+W3Y0cEaFpHQPgIgRkQ2KnGh8x1dsq/yqzhVHo31OWpLyfa/nGiPMWloWkVN2UIhkASAv9IEmVYED9+64aFSD7ajy4jaIowP8nhpghI00pBkRgQKI9AlCv5KE3CMxhFy05act8Jm0dIo2mFnBZEQWB0AjtluBs9y3kJ3CzsuWyhxBt5l0vAUV7uso6AHH6kaR3S4D0E5kUg0uLYCf29vJFPaa2SbeV+jWIfogiJqIOmFXFW0ASBaQh8UJqnaVKdlWWpvdy4VnLf/YxpjYL77s53WGPnUoqz7aP23J29NztCAAKTE/BCdS33rxj7iveXkdyxncO5nBP7RGCll7GYD4nr+erkC3lKaxTsRv4oH6JvrLGtdGEQgEAwAlfS44XDC9NYJ/9bcZ17LbeWOZubQtQF3HNobT5WlvK+5ho9z7fyt46LnN9v+hbIOAhAID2BRiG9+GzlOReGl3LvF0ZrnKOtVPRLXKJt20rnWn4tb+WN/CVrtdFNaiXfyKPVcUpPK60YBCCQmUCr/CUtHNbqBW9OtlCxbtynFlO2j8/Gxx0GAQhkJNAp91Ze6oJn7a5hLrZSoaXOVQ2627kcaNQJgWgEWgnygl/DQuIaXMsc7rx8t1XTvJV0/PlnbRgEIDAxgUb5NvKSFotLtLq2pbxmc3O+hAn7Duflx7K+YMAgAIEJCayUay4LmGut2XzVP5e5jFDndc0HE7VBIBoB33ncyyOc/FNqcM2uvUbzVb+v/qfkOddcmxoPIGqCQFQCvkKc62Kzr9sMarQrFbWvkddxWPjCoKnx4KEmCEQj4CvxWzmL2ScGZmEmtdlaBTHH4zHwhQEGAQiMTKBR/Hs5i9nnDMxkKa/J3IiZ68/nOdVxf1PTgUItEIhKwIvyozzViVtbHLOprXE1zHny490XAhgEIDAygVbxaVhvN2wz6uQ1mRtxbRcYuepxw/IdLAYBCIxIoFPsXCd5qXnNrCbrVEypcxFFty9oarsTr+kYp5ZKCPgk4w6r34LdVXIM7MtwPVEaQGk6aFj7o4hXCIxIgIY1fJFuR5yfHKE7JS2tYeTWS8PKcaSSc3YEaFhpFucaF6xOZ0PuRlBK/hrnf3aLIQXHJ7CQxK28lIUhuk4vXGZak3UqJjr33PpoWDUd8dQSmsA9C1LyBdlMa2tc3I2fbtw1znfoRQtx8yVwo9JzX6HWmn9d4WHVqCYucj4/Z27FpLYLlAoPXUqqgcCViqi1YUSpq6vhQDmqwQu0G3IUxjl1XB+x4SMEIDASAS88j/KcJ/wccptxI6/RfNEz12Noq9qXNU4qNUEgKoGNhM2haUSo0axrtUaFze1YulHNvujDIACBiQj4CjnCYj4nDdcTzW2uND6mar/r2qrGNhdg8kJgrgR8hVj74hKxGZq52ddsrm8tj8h/iCbP3XXNE0dtEIhM4EbihpzAjO3Pbx35wEiobalYmwqOMzerlbz2iw2ViEEgJoFGsmg6eRl4DuZibl5u1KUdczSrYEfou2B6kDMdAS8g3XTpBmd6UIQn+Y8nIr3X9ubZT+wSbvOdFH0TTtW4ghqF7+TfySPftfh4+7v8o9zHHQYBCGQk0Ch39CteX+G6sV7JF/Jzzft6jMc6RvQ6W2mcq0Wbp60m4ka+nOuEUDcEohLwgh51Md9ImxezVOZYjhm13ttUhRYex/PkhrGVTzlX9895aVQCgUEgIoFGoqZcFM7NtZGuVj6WtQrsHOfqmXK/Rrqw3wg0eusmtpJ7zh7lKeZj+xxvpVfHX8ixwgjwM63CJiyB3JVifJ8gTqoQTwr0N/kPqQK+EafT976ij7Rgufa/yrHXCbTPXy/1es787bSf/Un+IMcgAIECCaS6ak1x5etHM16AprZGCZ07RQ0pYnhOMAhAAAIQOCJwpc8pFtkUMW6lZXGkb+qP60A8uqmLJx8EIACB6ATcKFI0nKEx3CyiWJTG5bnBIAABCEDgmYDvaoY2mxTjIzWs/cERpXHlvvPc8+AVAhCAQHYCnRSkaDpDYkS+m4jQuDxHGAQgAAEIiEDuRfleGiLfSVibNQ5pykPHRm7qQoNBAAIQmI7Ao1INXVSHjF9OV2rvTNaYk5NzYxCAAARmT8CL8ZCGM3TsqqAZsNah9Q4ZX0JzL2g6kQoBCJRI4FqihyykQ8b67mFRGLRtRl6eKwwCEDhB4MsT29lcF4GvM5bjv/TwlDF/n9T+Cx257H2uxOSFAAQgEIXAvYQMuVvqO7bkn9HkuttyXgwCEDhBgDutE2Aq27zMVM+HTHlTpP1HiiA9YjQ9xjAEAhCAQDUE3LD63ikNHZerWaaYvCYjtzZFAcSAQI0EuNOqcVY/r2nx+cfJPu2U6WGybOkT5dSfa87SUyQiBBIToGklBhowXK67nY8BWVwq6e7SAYn2zzVnieQTBgLjEaBpjcc2SuRcV+0/RgEwQEcNNQwon6EQiEeAphVvTlIr+q/UAc+Mtztzv8i7PWQSl/OfKGQqmbQQOI8ATes8TiXvletRU64FP+Vc7VIGuyBWrrvjCySyKwTyEKBp5eFee9anigrcVVQLpUCgeAI0reKnMGQBNdxl7cHu9m94hQAE8hOgaeWfAxRAAAIQgMCZBGhaZ4JiNwhAAAIQyE+AppV/DmpU0NRYFDVBAAL5CdC08s9BjQqaiopqK6qFUiBQPAGaVvFT+GYBuzf3GGeHGn5tu4YaxpldokIgEwGaVibwE6b9ecJch6mWhx8KfZ+rBv4SR6EHDLLHJ0DTGp/xXDO0FRSeq2lVgI4SIDAOAZrWOFwjRX3IJOZ9prwp0+aqYZeyCGJBAAIQKIlAK7FD/79YfccvSgJ1pNXa+9Y9dFx7pIWPEIAABGZFYOgi2nd8VzBla+9b99BxJTf7gqcc6RCAQBQCWwkZupD2GX8fBUAPHZtMzB57aGUIBCAAgaoI3KqaPk0nxZi2QJLWnKL2PjE2BfJCMgQmI8AvYkyGOmuinzJm/z5j7r6pc2rm1937zhrjIACBagi0qqTPVX+qMVcFkYRVQZOFVAhAoF4CqRpQnzj+OU0Jv1xgjVt5nxpTjSmBU71nCZVBAAJhCGykJNXC2ieOf64W3dYS2Ke2VGPuowNCHwQgAIGpCFwrUarFtW8ca4hqnYT1rSvVuMh8os4buiAAgUoJNKor1eI6JE4XkO9VEDbLgGyQBAEIQCAbAT9+GtJwUo3tshH4fWI3Cv/MLVVtfeNsfy+NLRCAAATmTcCPn/ouqqnHdQGmopWGCA3LbD03GAQgAAEIHBBY6H3q5jMk3upA29RvIzVwM2ymBkA+CEAAAiUQWEvkkEaTeuxGepoJwTmXc6auY0i82wnrJxUEIACBogi0UjtkgR1jrB/RreS+ExzTVgoe5XHgIcd2zKKJDQEIQKB0AhsVcLhoRnm/lS4/tkvZvByrkzt2lDoPdVgXBgEIQAACrxC40neHC2e0974bWsuts695rGNEvLM65N31LZBxEJgjgXdzLJqafyVwr/8uC2FxJ53+Q7K7Z9fLFw/+j2xfQ6P39vfyVl6C7STyDyUIRSMEIACB3ARaCTi84uf99Dy63AcB+SEAAQiURGAjsTSrPAzMHoMABCAAgQsI+NEaTSsPg/1jzQumi10hAIH/AMGsCfyPqvfPNdtZU5i++B+U8h/TpyUjBCAAgfIJLFTCVs4d1zQMzNrMMQhAAAIQ6Emg1Tia1jQMzBqDAAR6EuDxYE9wlQ3bqR4eE44/qX4s+H/GT0MGCEAAAvMg4H+7xR3XOAzMlseC8ziPqHJEAr66xiCwJ7D/+RaL655ImtcnhfmjfJcmHFEgMF8CX863dCp/gYAX129e2M6mYQT+rOG7YSEYDQEIQAACpwh0+oLHhGkYmCUGAQhAAAIjE7hWfBrXMAY3I88R4SEAAQhA4IDAWu9pXP0YmB0GAQhAAAITE6BxXd60aFgTH6SkgwAEIHBIgMZ1fuOiYR0eObyHAAQgkImAfz7zC/4qAxpWpoOTtBCAAAReItBpI43rZQb+xRUMAhCAAASCEWil51FO8/rEwCyu5BgEIAABCAQl0EjXvXzujcsMzAKDAAQgAIECCKykca6N66aA+UEiBCAAAQgcEVjq85zuuraqtz1iwEcIQAACECiMwEp6H+U133m5RgwCEIAABCoh0KiOtby2xuWaXBsGAQhAAAIVEvAjw4289OblGlo5BgEIQAACMyDg5uW7lNKalzW3cgwCEIAABGZIoFHNK/lWHrWBWZs1NnIMAhCAAAQg8CsB/0Nc38lE+KUNa7AWa8IgAAEIQAACrxJo9e2N/F4+1R2YczlnK8cgAIHCCLwrTC9y6yWwUGn+GVgr/1reyP15iD1o8E7+k/xO7s9PcgwCECiUAE2r0ImbkeyFal0+13v4/hjBgzY8PW88fH+8H58hAAEIQAACEIAABCAAAQhAAAIQgAAEIAABCEAAAhCAAAQgAAEIQAACEIAABCAAAQhAAAIQgAAEIAABCEAAAhCAAAQgAAEIQAACEIDAbAn8f2toeBejzImjAAAAAElFTkSuQmCC;" parent="Qr_dwRY2gjO2oXWCvikJ-71" vertex="1">
          <mxGeometry x="150" y="215.8024691358025" width="18.76543209876543" height="18.76543209876543" as="geometry" />
        </mxCell>
        <mxCell id="Qr_dwRY2gjO2oXWCvikJ-97" value="" style="endArrow=classic;html=1;rounded=0;entryX=0;entryY=0.5;entryDx=0;entryDy=0;startArrow=classic;startFill=1;" parent="1" source="FG_MApjRu5s-pOYkRa3S-2" target="Qr_dwRY2gjO2oXWCvikJ-5" edge="1">
          <mxGeometry relative="1" as="geometry">
            <mxPoint x="110" y="220" as="sourcePoint" />
            <mxPoint x="410" y="410" as="targetPoint" />
          </mxGeometry>
        </mxCell>
        <mxCell id="Qr_dwRY2gjO2oXWCvikJ-98" value="dyff API" style="edgeLabel;resizable=0;html=1;align=center;verticalAlign=middle;" parent="Qr_dwRY2gjO2oXWCvikJ-97" connectable="0" vertex="1">
          <mxGeometry relative="1" as="geometry" />
        </mxCell>
        <mxCell id="Qr_dwRY2gjO2oXWCvikJ-99" value="User" style="shape=umlActor;verticalLabelPosition=bottom;verticalAlign=top;html=1;outlineConnect=0;" parent="1" vertex="1">
          <mxGeometry x="780" y="640" width="40" height="80" as="geometry" />
        </mxCell>
        <mxCell id="Qr_dwRY2gjO2oXWCvikJ-105" value="" style="endArrow=classic;html=1;rounded=0;startArrow=classic;startFill=1;edgeStyle=elbowEdgeStyle;elbow=vertical;exitX=0;exitY=0;exitDx=160;exitDy=0;exitPerimeter=0;" parent="1" source="Qr_dwRY2gjO2oXWCvikJ-28" edge="1">
          <mxGeometry relative="1" as="geometry">
            <mxPoint x="730" y="840" as="sourcePoint" />
            <mxPoint x="800" y="750" as="targetPoint" />
          </mxGeometry>
        </mxCell>
        <mxCell id="Qr_dwRY2gjO2oXWCvikJ-106" value="&lt;font face=&quot;Courier New&quot;&gt;kubectl&lt;/font&gt;" style="edgeLabel;resizable=0;html=1;align=center;verticalAlign=middle;" parent="Qr_dwRY2gjO2oXWCvikJ-105" connectable="0" vertex="1">
          <mxGeometry relative="1" as="geometry" />
        </mxCell>
        <mxCell id="Qr_dwRY2gjO2oXWCvikJ-107" value="&lt;h1&gt;Dyff Service Diagram&lt;br&gt;&lt;/h1&gt;&lt;p&gt;Revised: 2024-01-05&lt;br&gt;&lt;/p&gt;" style="text;html=1;strokeColor=none;fillColor=none;spacing=5;spacingTop=-20;whiteSpace=wrap;overflow=hidden;rounded=0;" parent="1" vertex="1">
          <mxGeometry x="40" y="40" width="440" height="120" as="geometry" />
        </mxCell>
        <mxCell id="Qr_dwRY2gjO2oXWCvikJ-112" value="Workflow Steps (&lt;font face=&quot;Courier New&quot;&gt;dyff/apps&lt;/font&gt;)" style="rounded=0;whiteSpace=wrap;html=1;fillColor=#E6E6E6;labelPosition=center;verticalLabelPosition=middle;align=right;verticalAlign=bottom;" parent="1" vertex="1">
          <mxGeometry x="80" y="840" width="200" height="210" as="geometry" />
        </mxCell>
        <mxCell id="Qr_dwRY2gjO2oXWCvikJ-114" value="&lt;font face=&quot;Courier New&quot;&gt;fetch_model&lt;/font&gt;" style="rounded=0;whiteSpace=wrap;html=1;" parent="1" vertex="1">
          <mxGeometry x="90" y="850" width="180" height="20" as="geometry" />
        </mxCell>
        <mxCell id="Qr_dwRY2gjO2oXWCvikJ-116" value="&lt;font face=&quot;Courier New&quot;&gt;evaluation_client&lt;/font&gt;" style="rounded=0;whiteSpace=wrap;html=1;" parent="1" vertex="1">
          <mxGeometry x="90" y="880" width="180" height="20" as="geometry" />
        </mxCell>
        <mxCell id="Qr_dwRY2gjO2oXWCvikJ-117" value="&lt;font face=&quot;Courier New&quot;&gt;verify_evaluation_output&lt;/font&gt;" style="rounded=0;whiteSpace=wrap;html=1;" parent="1" vertex="1">
          <mxGeometry x="90" y="910" width="180" height="20" as="geometry" />
        </mxCell>
        <mxCell id="Qr_dwRY2gjO2oXWCvikJ-118" value="&lt;font face=&quot;Courier New&quot;&gt;run_report&lt;/font&gt;" style="rounded=0;whiteSpace=wrap;html=1;" parent="1" vertex="1">
          <mxGeometry x="90" y="940" width="180" height="20" as="geometry" />
        </mxCell>
        <mxCell id="Qr_dwRY2gjO2oXWCvikJ-119" value="&lt;font face=&quot;Courier New&quot;&gt;mocks/inference_service&lt;/font&gt;" style="rounded=0;whiteSpace=wrap;html=1;" parent="1" vertex="1">
          <mxGeometry x="90" y="970" width="180" height="20" as="geometry" />
        </mxCell>
        <mxCell id="Qr_dwRY2gjO2oXWCvikJ-120" value="&lt;font face=&quot;Courier New&quot;&gt;runners/vllm&lt;/font&gt;" style="rounded=0;whiteSpace=wrap;html=1;" parent="1" vertex="1">
          <mxGeometry x="90" y="1000" width="180" height="20" as="geometry" />
        </mxCell>
        <mxCell id="Qr_dwRY2gjO2oXWCvikJ-121" value="" style="endArrow=none;dashed=1;html=1;rounded=0;exitX=1;exitY=0;exitDx=0;exitDy=0;entryX=0;entryY=0;entryDx=0;entryDy=0;" parent="1" source="Qr_dwRY2gjO2oXWCvikJ-112" target="Qr_dwRY2gjO2oXWCvikJ-34" edge="1">
          <mxGeometry width="50" height="50" relative="1" as="geometry">
            <mxPoint x="290" y="780" as="sourcePoint" />
            <mxPoint x="340" y="730" as="targetPoint" />
          </mxGeometry>
        </mxCell>
        <mxCell id="Qr_dwRY2gjO2oXWCvikJ-122" value="" style="endArrow=none;dashed=1;html=1;rounded=0;exitX=1;exitY=1;exitDx=0;exitDy=0;entryX=0;entryY=1;entryDx=0;entryDy=0;" parent="1" source="Qr_dwRY2gjO2oXWCvikJ-112" edge="1">
          <mxGeometry width="50" height="50" relative="1" as="geometry">
            <mxPoint x="250" y="770" as="sourcePoint" />
            <mxPoint x="335" y="1000" as="targetPoint" />
          </mxGeometry>
        </mxCell>
        <mxCell id="FG_MApjRu5s-pOYkRa3S-2" value="User" style="shape=umlActor;verticalLabelPosition=bottom;verticalAlign=top;html=1;outlineConnect=0;" parent="1" vertex="1">
          <mxGeometry x="50" y="212.5" width="40" height="80" as="geometry" />
        </mxCell>
        <mxCell id="eiK-7l1mJykc0ZjBCtth-2" value="&lt;div&gt;&lt;br&gt;&lt;/div&gt;&lt;div&gt;&lt;br&gt;&lt;/div&gt;&lt;div&gt;&lt;br&gt;&lt;/div&gt;&lt;div&gt;&lt;br&gt;&lt;/div&gt;&lt;div&gt;&lt;br&gt;&lt;/div&gt;&lt;div&gt;&lt;br&gt;&lt;/div&gt;&lt;div&gt;&lt;br&gt;&lt;/div&gt;&lt;div&gt;&lt;br&gt;&lt;/div&gt;&lt;div&gt;&lt;br&gt;&lt;/div&gt;&lt;div&gt;&lt;br&gt;&lt;/div&gt;&lt;div&gt;&lt;br&gt;&lt;/div&gt;" style="rounded=0;whiteSpace=wrap;html=1;fillColor=#E6E6E6;container=0;" vertex="1" parent="1">
          <mxGeometry x="500" y="40" width="290" height="170" as="geometry" />
        </mxCell>
        <mxCell id="eiK-7l1mJykc0ZjBCtth-3" value="&lt;div&gt;&lt;font face=&quot;Courier New&quot;&gt;cert-manager/cert-manager&lt;/font&gt;&lt;br&gt;&lt;/div&gt;&lt;font face=&quot;Courier New&quot;&gt;Deployment&lt;/font&gt;" style="rounded=0;whiteSpace=wrap;html=1;container=0;" vertex="1" parent="1">
          <mxGeometry x="512" y="50" width="265" height="40" as="geometry" />
        </mxCell>
        <mxCell id="eiK-7l1mJykc0ZjBCtth-4" value="cert-manager" style="text;html=1;strokeColor=none;fillColor=none;align=center;verticalAlign=middle;whiteSpace=wrap;rounded=0;container=0;" vertex="1" parent="1">
          <mxGeometry x="686.5217391304348" y="182.87" width="113.47826086956522" height="29.63" as="geometry" />
        </mxCell>
        <mxCell id="eiK-7l1mJykc0ZjBCtth-5" value="&lt;div&gt;&lt;font face=&quot;Courier New&quot;&gt;cert-manager/cert-manager-cainjector&lt;/font&gt;&lt;br&gt;&lt;/div&gt;&lt;font face=&quot;Courier New&quot;&gt;Deployment&lt;/font&gt;" style="rounded=0;whiteSpace=wrap;html=1;container=0;" vertex="1" parent="1">
          <mxGeometry x="512" y="100" width="265" height="40" as="geometry" />
        </mxCell>
        <mxCell id="eiK-7l1mJykc0ZjBCtth-6" value="&lt;div&gt;&lt;font face=&quot;Courier New&quot;&gt;cert-manager/cert-manager-webhook&lt;/font&gt;&lt;br&gt;&lt;/div&gt;&lt;font face=&quot;Courier New&quot;&gt;Deployment&lt;/font&gt;" style="rounded=0;whiteSpace=wrap;html=1;container=0;" vertex="1" parent="1">
          <mxGeometry x="512" y="150" width="265" height="40" as="geometry" />
        </mxCell>
        <mxCell id="eiK-7l1mJykc0ZjBCtth-9" value="" style="endArrow=classic;html=1;rounded=0;exitX=0;exitY=0.5;exitDx=0;exitDy=0;entryX=0.5;entryY=0;entryDx=0;entryDy=0;edgeStyle=orthogonalEdgeStyle;" edge="1" parent="1" source="eiK-7l1mJykc0ZjBCtth-2" target="Qr_dwRY2gjO2oXWCvikJ-5">
          <mxGeometry relative="1" as="geometry">
            <mxPoint x="300" y="140" as="sourcePoint" />
            <mxPoint x="400" y="140" as="targetPoint" />
          </mxGeometry>
        </mxCell>
        <mxCell id="eiK-7l1mJykc0ZjBCtth-10" value="SSL certificates" style="edgeLabel;resizable=0;html=1;align=center;verticalAlign=middle;" connectable="0" vertex="1" parent="eiK-7l1mJykc0ZjBCtth-9">
          <mxGeometry relative="1" as="geometry" />
        </mxCell>
      </root>
    </mxGraphModel>
  </diagram>
</mxfile>
